<mxfile host="app.diagrams.net" modified="2024-04-14T14:58:01.917Z" agent="Mozilla/5.0 (X11; Linux x86_64) AppleWebKit/537.36 (KHTML, like Gecko) Chrome/122.0.0.0 Safari/537.36" etag="nu2neTM-R4ppD7xf7K7G" version="24.2.5" type="device">
  <diagram name="第 1 页" id="uPVqDXDd7HJBACui3QGN">
    <mxGraphModel dx="2261" dy="776" grid="1" gridSize="10" guides="1" tooltips="1" connect="1" arrows="1" fold="1" page="1" pageScale="1" pageWidth="827" pageHeight="1169" math="0" shadow="0">
      <root>
        <mxCell id="0" />
        <mxCell id="1" parent="0" />
        <UserObject label="" plantUmlData="{&#xa;  &quot;data&quot;: &quot;@startuml\n!includeurl https://raw.githubusercontent.com/plantuml-stdlib/C4-PlantUML/master/C4_Context.puml\n\ntitle 登录服务类图\n\npackage \&quot;登录服务\&quot; &lt;&lt;Rectangle&gt;&gt; {\n  class AuthController {\n    - login(username, password)\n  }\n  \n  interface AuthService {\n    + login(username, password): String\n  }\n  \n  class AuthServiceImpl implements AuthService {\n    - userRepository: UserRepository\n    - jwtUtils: JWTUtils\n    - passwordUtils: PasswordUtils\n    \n    + login(username, password): String\n  }\n  \n  interface UserRepository {\n    + findByUsername(username): User\n  }\n\n  class User {\n    - username: String\n    - password: String\n    ...\n  }\n\n  class JWTUtils {\n    + generateToken(user): String\n    + validateToken(token): boolean\n  }\n\n  class PasswordUtils {\n    + encryptPassword(password): String\n    + verifyPassword(password, encryptedPassword): boolean\n  }\n}\n\nAuthController --&gt; AuthServiceImpl\nAuthServiceImpl --&gt; UserRepository\nAuthServiceImpl --&gt; JWTUtils\nAuthServiceImpl --&gt; PasswordUtils\nUserRepository --&gt; User\n\n@enduml&quot;,&#xa;  &quot;format&quot;: &quot;svg&quot;&#xa;}" id="Gy5BP04a-Xlsz3oRnTCF-1">
          <mxCell style="shape=image;noLabel=1;verticalAlign=top;aspect=fixed;imageAspect=0;image=data:image/svg+xml,PD94bWwgdmVyc2lvbj0iMS4wIiBlbmNvZGluZz0idXMtYXNjaWkiIHN0YW5kYWxvbmU9Im5vIj8+PHN2ZyB4bWxucz0iaHR0cDovL3d3dy53My5vcmcvMjAwMC9zdmciIHhtbG5zOnhsaW5rPSJodHRwOi8vd3d3LnczLm9yZy8xOTk5L3hsaW5rIiBjb250ZW50U3R5bGVUeXBlPSJ0ZXh0L2NzcyIgaGVpZ2h0PSI2OTRweCIgcHJlc2VydmVBc3BlY3RSYXRpbz0ibm9uZSIgc3R5bGU9IndpZHRoOjc1NHB4O2hlaWdodDo2OTRweDtiYWNrZ3JvdW5kOiNGRkZGRkY7IiB2ZXJzaW9uPSIxLjEiIHZpZXdCb3g9IjAgMCA3NTQgNjk0IiB3aWR0aD0iNzU0cHgiIHpvb21BbmRQYW49Im1hZ25pZnkiPjxkZWZzLz48Zz48dGV4dCBmaWxsPSIjMDAwMDAwIiBmb250LWZhbWlseT0ic2Fucy1zZXJpZiIgZm9udC1zaXplPSIxNCIgZm9udC13ZWlnaHQ9ImJvbGQiIGxlbmd0aEFkanVzdD0ic3BhY2luZyIgdGV4dExlbmd0aD0iODQiIHg9IjMyOCIgeT0iMjMuMjM0NCI+JiMzMDMzMTsmIzI0NDA1OyYjMjYzODE7JiMyMTE1MzsmIzMxODY3OyYjMjIyNzA7PC90ZXh0PjwhLS1jbHVzdGVyID8/Pz8tLT48ZyBpZD0iY2x1c3Rlcl8mIzMwMzMxOyYjMjQ0MDU7JiMyNjM4MTsmIzIxMTUzOyI+PHJlY3QgZmlsbD0ibm9uZSIgaGVpZ2h0PSI2NDYiIHJ4PSIyLjUiIHJ5PSIyLjUiIHN0eWxlPSJzdHJva2U6IzE4MTgxODtzdHJva2Utd2lkdGg6MS4wOyIgd2lkdGg9Ijc0MSIgeD0iNyIgeT0iNDIuOTg0NCIvPjx0ZXh0IGZpbGw9IiMwMDAwMDAiIGZvbnQtZmFtaWx5PSJzYW5zLXNlcmlmIiBmb250LXNpemU9IjE0IiBmb250LXdlaWdodD0iYm9sZCIgbGVuZ3RoQWRqdXN0PSJzcGFjaW5nIiB0ZXh0TGVuZ3RoPSI1NiIgeD0iMzQ5LjUiIHk9IjU4LjIxODgiPiYjMzAzMzE7JiMyNDQwNTsmIzI2MzgxOyYjMjExNTM7PC90ZXh0PjwvZz48IS0tY2xhc3MgQXV0aENvbnRyb2xsZXItLT48ZyBpZD0iZWxlbV9BdXRoQ29udHJvbGxlciI+PHJlY3QgY29kZUxpbmU9IjYiIGZpbGw9IiNGMUYxRjEiIGhlaWdodD0iNjIuOTg0NCIgaWQ9IkF1dGhDb250cm9sbGVyIiByeD0iMi41IiByeT0iMi41IiBzdHlsZT0ic3Ryb2tlOiMxODE4MTg7c3Ryb2tlLXdpZHRoOjAuNTsiIHdpZHRoPSIyMDUiIHg9IjM5MS41IiB5PSI4My40ODQ0Ii8+PGVsbGlwc2UgY3g9IjQ0MC43NSIgY3k9Ijk5LjQ4NDQiIGZpbGw9IiNBREQxQjIiIHJ4PSIxMSIgcnk9IjExIiBzdHlsZT0ic3Ryb2tlOiMxODE4MTg7c3Ryb2tlLXdpZHRoOjEuMDsiLz48cGF0aCBkPSJNNDM4LjM3NSwxMDMuNzM0NCBMNDM4LjM3NSwxMDUuNDg0NCBMNDQzLjMxMjUsMTA1LjQ4NDQgTDQ0My4zMTI1LDEwMy43MzQ0IEw0MzguMzc1LDEwMy43MzQ0IFogTTQzOS4wNjI1LDEwNC40MjE5IFE0MzkuMDYyNSwxMDQuNDIxOSA0MzkuMDYyNSw5NS4yMzQ0IEw0MzcuMzEyNSw5NS4yMzQ0IFE0MzcuMzEyNSw5NS4yMzQ0IDQzNy4zMTI1LDEwNC40MjE5IEw0MzkuMDYyNSwxMDQuNDIxOSBaIE00NDIuNjI1LDEwNC40MjE5IEw0NDQuMzc1LDEwNC40MjE5IFE0NDQuMzc1LDEwNC40MjE5IDQ0NC4zNzUsMTAxLjYwOTQgTDQ0Mi42MjUsMTAxLjYwOTQgUTQ0Mi42MjUsMTAxLjYwOTQgNDQyLjYyNSwxMDQuNDIxOSBaIE00NDIuNjI1LDk1LjIzNDQgUTQ0Mi42MjUsOTUuMjM0NCA0NDIuNjI1LDk4LjA0NjkgTDQ0NC4zNzUsOTguMDQ2OSBRNDQ0LjM3NSw5OC4wNDY5IDQ0NC4zNzUsOTUuMjM0NCBMNDQyLjYyNSw5NS4yMzQ0IFogTTQzOC4zNzUsOTUuOTIxOSBMNDQzLjMxMjUsOTUuOTIxOSBMNDQzLjMxMjUsOTQuMTcxOSBMNDM4LjM3NSw5NC4xNzE5IEw0MzguMzc1LDk1LjkyMTkgWiAiIGZpbGw9IiMwMDAwMDAiLz48dGV4dCBmaWxsPSIjMDAwMDAwIiBmb250LWZhbWlseT0ic2Fucy1zZXJpZiIgZm9udC1zaXplPSIxNCIgbGVuZ3RoQWRqdXN0PSJzcGFjaW5nIiB0ZXh0TGVuZ3RoPSI5OCIgeD0iNDYxLjI1IiB5PSIxMDUuMjI2NiI+QXV0aENvbnRyb2xsZXI8L3RleHQ+PGxpbmUgc3R5bGU9InN0cm9rZTojMTgxODE4O3N0cm9rZS13aWR0aDowLjU7IiB4MT0iMzkyLjUiIHgyPSI1OTUuNSIgeTE9IjExNS40ODQ0IiB5Mj0iMTE1LjQ4NDQiLz48bGluZSBzdHlsZT0ic3Ryb2tlOiMxODE4MTg7c3Ryb2tlLXdpZHRoOjAuNTsiIHgxPSIzOTIuNSIgeDI9IjU5NS41IiB5MT0iMTIzLjQ4NDQiIHkyPSIxMjMuNDg0NCIvPjxyZWN0IGZpbGw9IiNGMjRENUMiIGhlaWdodD0iNiIgc3R5bGU9InN0cm9rZTojQzgyOTMwO3N0cm9rZS13aWR0aDoxLjA7IiB3aWR0aD0iNiIgeD0iMzk5LjUiIHk9IjEzMy40NzY2Ii8+PHRleHQgZmlsbD0iIzAwMDAwMCIgZm9udC1mYW1pbHk9InNhbnMtc2VyaWYiIGZvbnQtc2l6ZT0iMTQiIGxlbmd0aEFkanVzdD0ic3BhY2luZyIgdGV4dExlbmd0aD0iMTA3IiB4PSI0MTEuNSIgeT0iMTQwLjcxODgiPmxvZ2luKHVzZXJuYW1lLDwvdGV4dD48dGV4dCBmaWxsPSIjMDAwMDAwIiBmb250LWZhbWlseT0ic2Fucy1zZXJpZiIgZm9udC1zaXplPSIxNCIgbGVuZ3RoQWRqdXN0PSJzcGFjaW5nIiB0ZXh0TGVuZ3RoPSI3IiB4PSI1MTguNSIgeT0iMTQwLjcxODgiPiYjMTYwOzwvdGV4dD48dGV4dCBmaWxsPSIjMDAwMDAwIiBmb250LWZhbWlseT0ic2Fucy1zZXJpZiIgZm9udC1zaXplPSIxNCIgbGVuZ3RoQWRqdXN0PSJzcGFjaW5nIiB0ZXh0TGVuZ3RoPSI2NSIgeD0iNTI1LjUiIHk9IjE0MC43MTg4Ij5wYXNzd29yZCk8L3RleHQ+PC9nPjwhLS1jbGFzcyBBdXRoU2VydmljZS0tPjxnIGlkPSJlbGVtX0F1dGhTZXJ2aWNlIj48cmVjdCBjb2RlTGluZT0iMTAiIGZpbGw9IiNGMUYxRjEiIGhlaWdodD0iNzcuOTY4OCIgaWQ9IkF1dGhTZXJ2aWNlIiByeD0iMi41IiByeT0iMi41IiBzdHlsZT0ic3Ryb2tlOiMxODE4MTg7c3Ryb2tlLXdpZHRoOjAuNTsiIHdpZHRoPSIyMTIiIHg9IjE0NCIgeT0iNzUuOTg0NCIvPjxlbGxpcHNlIGN4PSIyMDcuMjUiIGN5PSI5MS45ODQ0IiBmaWxsPSIjQjRBN0U1IiByeD0iMTEiIHJ5PSIxMSIgc3R5bGU9InN0cm9rZTojMTgxODE4O3N0cm9rZS13aWR0aDoxLjA7Ii8+PHBhdGggZD0iTTIxMC4zNzUsOTcuOTg0NCBMMjEwLjM3NSw5Ni4yMzQ0IEwyMDguMjUsOTYuMjM0NCBRMjA4LjI1LDk2LjIzNDQgMjA4LjI1LDg4LjQyMTkgTDIxMC4zNzUsODguNDIxOSBMMjEwLjM3NSw4Ni42NzE5IEwyMDQuMzc1LDg2LjY3MTkgTDIwNC4zNzUsODguNDIxOSBMMjA2LjUsODguNDIxOSBRMjA2LjUsODguNDIxOSAyMDYuNSw5Ni4yMzQ0IEwyMDQuMzc1LDk2LjIzNDQgTDIwNC4zNzUsOTcuOTg0NCBMMjEwLjM3NSw5Ny45ODQ0IFogIiBmaWxsPSIjMDAwMDAwIi8+PHRleHQgZmlsbD0iIzAwMDAwMCIgZm9udC1mYW1pbHk9InNhbnMtc2VyaWYiIGZvbnQtc2l6ZT0iMTQiIGZvbnQtc3R5bGU9Iml0YWxpYyIgbGVuZ3RoQWRqdXN0PSJzcGFjaW5nIiB0ZXh0TGVuZ3RoPSI3NyIgeD0iMjI3Ljc1IiB5PSI5Ny43MjY2Ij5BdXRoU2VydmljZTwvdGV4dD48bGluZSBzdHlsZT0ic3Ryb2tlOiMxODE4MTg7c3Ryb2tlLXdpZHRoOjAuNTsiIHgxPSIxNDUiIHgyPSIzNTUiIHkxPSIxMDcuOTg0NCIgeTI9IjEwNy45ODQ0Ii8+PGxpbmUgc3R5bGU9InN0cm9rZTojMTgxODE4O3N0cm9rZS13aWR0aDowLjU7IiB4MT0iMTQ1IiB4Mj0iMzU1IiB5MT0iMTE1Ljk4NDQiIHkyPSIxMTUuOTg0NCIvPjxlbGxpcHNlIGN4PSIxNTUiIGN5PSIxMzYuNDY4OCIgZmlsbD0iIzg0QkU4NCIgcng9IjMiIHJ5PSIzIiBzdHlsZT0ic3Ryb2tlOiMwMzgwNDg7c3Ryb2tlLXdpZHRoOjEuMDsiLz48dGV4dCBmaWxsPSIjMDAwMDAwIiBmb250LWZhbWlseT0ic2Fucy1zZXJpZiIgZm9udC1zaXplPSIxNCIgbGVuZ3RoQWRqdXN0PSJzcGFjaW5nIiB0ZXh0TGVuZ3RoPSIxMDciIHg9IjE2NCIgeT0iMTMzLjIxODgiPmxvZ2luKHVzZXJuYW1lLDwvdGV4dD48dGV4dCBmaWxsPSIjMDAwMDAwIiBmb250LWZhbWlseT0ic2Fucy1zZXJpZiIgZm9udC1zaXplPSIxNCIgbGVuZ3RoQWRqdXN0PSJzcGFjaW5nIiB0ZXh0TGVuZ3RoPSI3IiB4PSIyNzEiIHk9IjEzMy4yMTg4Ij4mIzE2MDs8L3RleHQ+PHRleHQgZmlsbD0iIzAwMDAwMCIgZm9udC1mYW1pbHk9InNhbnMtc2VyaWYiIGZvbnQtc2l6ZT0iMTQiIGxlbmd0aEFkanVzdD0ic3BhY2luZyIgdGV4dExlbmd0aD0iNzIiIHg9IjI3OCIgeT0iMTMzLjIxODgiPnBhc3N3b3JkKTo8L3RleHQ+PHRleHQgZmlsbD0iIzAwMDAwMCIgZm9udC1mYW1pbHk9InNhbnMtc2VyaWYiIGZvbnQtc2l6ZT0iMTQiIGxlbmd0aEFkanVzdD0ic3BhY2luZyIgdGV4dExlbmd0aD0iNDIiIHg9IjE2NCIgeT0iMTQ4LjIwMzEiPlN0cmluZzwvdGV4dD48L2c+PCEtLWNsYXNzIEF1dGhTZXJ2aWNlSW1wbC0tPjxnIGlkPSJlbGVtX0F1dGhTZXJ2aWNlSW1wbCI+PHJlY3QgY29kZUxpbmU9IjE0IiBmaWxsPSIjRjFGMUYxIiBoZWlnaHQ9IjEzNy45MDYzIiBpZD0iQXV0aFNlcnZpY2VJbXBsIiByeD0iMi41IiByeT0iMi41IiBzdHlsZT0ic3Ryb2tlOiMxODE4MTg7c3Ryb2tlLXdpZHRoOjAuNTsiIHdpZHRoPSIyMjQiIHg9IjI1OSIgeT0iMjEzLjk4NDQiLz48ZWxsaXBzZSBjeD0iMzEzLjc1IiBjeT0iMjI5Ljk4NDQiIGZpbGw9IiNBREQxQjIiIHJ4PSIxMSIgcnk9IjExIiBzdHlsZT0ic3Ryb2tlOiMxODE4MTg7c3Ryb2tlLXdpZHRoOjEuMDsiLz48cGF0aCBkPSJNMzExLjM3NSwyMzQuMjM0NCBMMzExLjM3NSwyMzUuOTg0NCBMMzE2LjMxMjUsMjM1Ljk4NDQgTDMxNi4zMTI1LDIzNC4yMzQ0IEwzMTEuMzc1LDIzNC4yMzQ0IFogTTMxMi4wNjI1LDIzNC45MjE5IFEzMTIuMDYyNSwyMzQuOTIxOSAzMTIuMDYyNSwyMjUuNzM0NCBMMzEwLjMxMjUsMjI1LjczNDQgUTMxMC4zMTI1LDIyNS43MzQ0IDMxMC4zMTI1LDIzNC45MjE5IEwzMTIuMDYyNSwyMzQuOTIxOSBaIE0zMTUuNjI1LDIzNC45MjE5IEwzMTcuMzc1LDIzNC45MjE5IFEzMTcuMzc1LDIzNC45MjE5IDMxNy4zNzUsMjMyLjEwOTQgTDMxNS42MjUsMjMyLjEwOTQgUTMxNS42MjUsMjMyLjEwOTQgMzE1LjYyNSwyMzQuOTIxOSBaIE0zMTUuNjI1LDIyNS43MzQ0IFEzMTUuNjI1LDIyNS43MzQ0IDMxNS42MjUsMjI4LjU0NjkgTDMxNy4zNzUsMjI4LjU0NjkgUTMxNy4zNzUsMjI4LjU0NjkgMzE3LjM3NSwyMjUuNzM0NCBMMzE1LjYyNSwyMjUuNzM0NCBaIE0zMTEuMzc1LDIyNi40MjE5IEwzMTYuMzEyNSwyMjYuNDIxOSBMMzE2LjMxMjUsMjI0LjY3MTkgTDMxMS4zNzUsMjI0LjY3MTkgTDMxMS4zNzUsMjI2LjQyMTkgWiAiIGZpbGw9IiMwMDAwMDAiLz48dGV4dCBmaWxsPSIjMDAwMDAwIiBmb250LWZhbWlseT0ic2Fucy1zZXJpZiIgZm9udC1zaXplPSIxNCIgbGVuZ3RoQWRqdXN0PSJzcGFjaW5nIiB0ZXh0TGVuZ3RoPSIxMDYiIHg9IjMzNC4yNSIgeT0iMjM1LjcyNjYiPkF1dGhTZXJ2aWNlSW1wbDwvdGV4dD48bGluZSBzdHlsZT0ic3Ryb2tlOiMxODE4MTg7c3Ryb2tlLXdpZHRoOjAuNTsiIHgxPSIyNjAiIHgyPSI0ODIiIHkxPSIyNDUuOTg0NCIgeTI9IjI0NS45ODQ0Ii8+PHJlY3QgZmlsbD0ibm9uZSIgaGVpZ2h0PSI2IiBzdHlsZT0ic3Ryb2tlOiNDODI5MzA7c3Ryb2tlLXdpZHRoOjEuMDsiIHdpZHRoPSI2IiB4PSIyNjciIHk9IjI2My40Njg4Ii8+PHRleHQgZmlsbD0iIzAwMDAwMCIgZm9udC1mYW1pbHk9InNhbnMtc2VyaWYiIGZvbnQtc2l6ZT0iMTQiIGxlbmd0aEFkanVzdD0ic3BhY2luZyIgdGV4dExlbmd0aD0iMTA1IiB4PSIyNzkiIHk9IjI2My4yMTg4Ij51c2VyUmVwb3NpdG9yeTo8L3RleHQ+PHRleHQgZmlsbD0iIzAwMDAwMCIgZm9udC1mYW1pbHk9InNhbnMtc2VyaWYiIGZvbnQtc2l6ZT0iMTQiIGxlbmd0aEFkanVzdD0ic3BhY2luZyIgdGV4dExlbmd0aD0iOTgiIHg9IjI3OSIgeT0iMjc4LjIwMzEiPlVzZXJSZXBvc2l0b3J5PC90ZXh0PjxyZWN0IGZpbGw9Im5vbmUiIGhlaWdodD0iNiIgc3R5bGU9InN0cm9rZTojQzgyOTMwO3N0cm9rZS13aWR0aDoxLjA7IiB3aWR0aD0iNiIgeD0iMjY3IiB5PSIyODUuOTQ1MyIvPjx0ZXh0IGZpbGw9IiMwMDAwMDAiIGZvbnQtZmFtaWx5PSJzYW5zLXNlcmlmIiBmb250LXNpemU9IjE0IiBsZW5ndGhBZGp1c3Q9InNwYWNpbmciIHRleHRMZW5ndGg9IjY0IiB4PSIyNzkiIHk9IjI5My4xODc1Ij5qd3RVdGlsczo8L3RleHQ+PHRleHQgZmlsbD0iIzAwMDAwMCIgZm9udC1mYW1pbHk9InNhbnMtc2VyaWYiIGZvbnQtc2l6ZT0iMTQiIGxlbmd0aEFkanVzdD0ic3BhY2luZyIgdGV4dExlbmd0aD0iNyIgeD0iMzQzIiB5PSIyOTMuMTg3NSI+JiMxNjA7PC90ZXh0Pjx0ZXh0IGZpbGw9IiMwMDAwMDAiIGZvbnQtZmFtaWx5PSJzYW5zLXNlcmlmIiBmb250LXNpemU9IjE0IiBsZW5ndGhBZGp1c3Q9InNwYWNpbmciIHRleHRMZW5ndGg9IjU3IiB4PSIzNTAiIHk9IjI5My4xODc1Ij5KV1RVdGlsczwvdGV4dD48cmVjdCBmaWxsPSJub25lIiBoZWlnaHQ9IjYiIHN0eWxlPSJzdHJva2U6I0M4MjkzMDtzdHJva2Utd2lkdGg6MS4wOyIgd2lkdGg9IjYiIHg9IjI2NyIgeT0iMzAwLjkyOTciLz48dGV4dCBmaWxsPSIjMDAwMDAwIiBmb250LWZhbWlseT0ic2Fucy1zZXJpZiIgZm9udC1zaXplPSIxNCIgbGVuZ3RoQWRqdXN0PSJzcGFjaW5nIiB0ZXh0TGVuZ3RoPSI5OSIgeD0iMjc5IiB5PSIzMDguMTcxOSI+cGFzc3dvcmRVdGlsczo8L3RleHQ+PHRleHQgZmlsbD0iIzAwMDAwMCIgZm9udC1mYW1pbHk9InNhbnMtc2VyaWYiIGZvbnQtc2l6ZT0iMTQiIGxlbmd0aEFkanVzdD0ic3BhY2luZyIgdGV4dExlbmd0aD0iNyIgeD0iMzc4IiB5PSIzMDguMTcxOSI+JiMxNjA7PC90ZXh0Pjx0ZXh0IGZpbGw9IiMwMDAwMDAiIGZvbnQtZmFtaWx5PSJzYW5zLXNlcmlmIiBmb250LXNpemU9IjE0IiBsZW5ndGhBZGp1c3Q9InNwYWNpbmciIHRleHRMZW5ndGg9IjkyIiB4PSIzODUiIHk9IjMwOC4xNzE5Ij5QYXNzd29yZFV0aWxzPC90ZXh0PjxsaW5lIHN0eWxlPSJzdHJva2U6IzE4MTgxODtzdHJva2Utd2lkdGg6MC41OyIgeDE9IjI2MCIgeDI9IjQ4MiIgeTE9IjMxMy45MjE5IiB5Mj0iMzEzLjkyMTkiLz48ZWxsaXBzZSBjeD0iMjcwIiBjeT0iMzM0LjQwNjMiIGZpbGw9IiM4NEJFODQiIHJ4PSIzIiByeT0iMyIgc3R5bGU9InN0cm9rZTojMDM4MDQ4O3N0cm9rZS13aWR0aDoxLjA7Ii8+PHRleHQgZmlsbD0iIzAwMDAwMCIgZm9udC1mYW1pbHk9InNhbnMtc2VyaWYiIGZvbnQtc2l6ZT0iMTQiIGxlbmd0aEFkanVzdD0ic3BhY2luZyIgdGV4dExlbmd0aD0iMTA3IiB4PSIyNzkiIHk9IjMzMS4xNTYzIj5sb2dpbih1c2VybmFtZSw8L3RleHQ+PHRleHQgZmlsbD0iIzAwMDAwMCIgZm9udC1mYW1pbHk9InNhbnMtc2VyaWYiIGZvbnQtc2l6ZT0iMTQiIGxlbmd0aEFkanVzdD0ic3BhY2luZyIgdGV4dExlbmd0aD0iNyIgeD0iMzg2IiB5PSIzMzEuMTU2MyI+JiMxNjA7PC90ZXh0Pjx0ZXh0IGZpbGw9IiMwMDAwMDAiIGZvbnQtZmFtaWx5PSJzYW5zLXNlcmlmIiBmb250LXNpemU9IjE0IiBsZW5ndGhBZGp1c3Q9InNwYWNpbmciIHRleHRMZW5ndGg9IjcyIiB4PSIzOTMiIHk9IjMzMS4xNTYzIj5wYXNzd29yZCk6PC90ZXh0Pjx0ZXh0IGZpbGw9IiMwMDAwMDAiIGZvbnQtZmFtaWx5PSJzYW5zLXNlcmlmIiBmb250LXNpemU9IjE0IiBsZW5ndGhBZGp1c3Q9InNwYWNpbmciIHRleHRMZW5ndGg9IjQyIiB4PSIyNzkiIHk9IjM0Ni4xNDA2Ij5TdHJpbmc8L3RleHQ+PC9nPjwhLS1jbGFzcyBVc2VyUmVwb3NpdG9yeS0tPjxnIGlkPSJlbGVtX1VzZXJSZXBvc2l0b3J5Ij48cmVjdCBjb2RlTGluZT0iMjIiIGZpbGw9IiNGMUYxRjEiIGhlaWdodD0iNzcuOTY4OCIgaWQ9IlVzZXJSZXBvc2l0b3J5IiByeD0iMi41IiByeT0iMi41IiBzdHlsZT0ic3Ryb2tlOiMxODE4MTg7c3Ryb2tlLXdpZHRoOjAuNTsiIHdpZHRoPSIyMDUiIHg9IjIyLjUiIHk9IjQyNi45ODQ0Ii8+PGVsbGlwc2UgY3g9IjcxLjc1IiBjeT0iNDQyLjk4NDQiIGZpbGw9IiNCNEE3RTUiIHJ4PSIxMSIgcnk9IjExIiBzdHlsZT0ic3Ryb2tlOiMxODE4MTg7c3Ryb2tlLXdpZHRoOjEuMDsiLz48cGF0aCBkPSJNNzQuODc1LDQ0OC45ODQ0IEw3NC44NzUsNDQ3LjIzNDQgTDcyLjc1LDQ0Ny4yMzQ0IFE3Mi43NSw0NDcuMjM0NCA3Mi43NSw0MzkuNDIxOSBMNzQuODc1LDQzOS40MjE5IEw3NC44NzUsNDM3LjY3MTkgTDY4Ljg3NSw0MzcuNjcxOSBMNjguODc1LDQzOS40MjE5IEw3MSw0MzkuNDIxOSBRNzEsNDM5LjQyMTkgNzEsNDQ3LjIzNDQgTDY4Ljg3NSw0NDcuMjM0NCBMNjguODc1LDQ0OC45ODQ0IEw3NC44NzUsNDQ4Ljk4NDQgWiAiIGZpbGw9IiMwMDAwMDAiLz48dGV4dCBmaWxsPSIjMDAwMDAwIiBmb250LWZhbWlseT0ic2Fucy1zZXJpZiIgZm9udC1zaXplPSIxNCIgZm9udC1zdHlsZT0iaXRhbGljIiBsZW5ndGhBZGp1c3Q9InNwYWNpbmciIHRleHRMZW5ndGg9Ijk4IiB4PSI5Mi4yNSIgeT0iNDQ4LjcyNjYiPlVzZXJSZXBvc2l0b3J5PC90ZXh0PjxsaW5lIHN0eWxlPSJzdHJva2U6IzE4MTgxODtzdHJva2Utd2lkdGg6MC41OyIgeDE9IjIzLjUiIHgyPSIyMjYuNSIgeTE9IjQ1OC45ODQ0IiB5Mj0iNDU4Ljk4NDQiLz48bGluZSBzdHlsZT0ic3Ryb2tlOiMxODE4MTg7c3Ryb2tlLXdpZHRoOjAuNTsiIHgxPSIyMy41IiB4Mj0iMjI2LjUiIHkxPSI0NjYuOTg0NCIgeTI9IjQ2Ni45ODQ0Ii8+PGVsbGlwc2UgY3g9IjMzLjUiIGN5PSI0ODcuNDY4OCIgZmlsbD0iIzg0QkU4NCIgcng9IjMiIHJ5PSIzIiBzdHlsZT0ic3Ryb2tlOiMwMzgwNDg7c3Ryb2tlLXdpZHRoOjEuMDsiLz48dGV4dCBmaWxsPSIjMDAwMDAwIiBmb250LWZhbWlseT0ic2Fucy1zZXJpZiIgZm9udC1zaXplPSIxNCIgbGVuZ3RoQWRqdXN0PSJzcGFjaW5nIiB0ZXh0TGVuZ3RoPSIxNzkiIHg9IjQyLjUiIHk9IjQ4NC4yMTg4Ij5maW5kQnlVc2VybmFtZSh1c2VybmFtZSk6PC90ZXh0Pjx0ZXh0IGZpbGw9IiMwMDAwMDAiIGZvbnQtZmFtaWx5PSJzYW5zLXNlcmlmIiBmb250LXNpemU9IjE0IiBsZW5ndGhBZGp1c3Q9InNwYWNpbmciIHRleHRMZW5ndGg9IjI4IiB4PSI0Mi41IiB5PSI0OTkuMjAzMSI+VXNlcjwvdGV4dD48L2c+PCEtLWNsYXNzIFVzZXItLT48ZyBpZD0iZWxlbV9Vc2VyIj48cmVjdCBjb2RlTGluZT0iMjYiIGZpbGw9IiNGMUYxRjEiIGhlaWdodD0iOTIuOTUzMSIgaWQ9IlVzZXIiIHJ4PSIyLjUiIHJ5PSIyLjUiIHN0eWxlPSJzdHJva2U6IzE4MTgxODtzdHJva2Utd2lkdGg6MC41OyIgd2lkdGg9IjEzOSIgeD0iNTUuNSIgeT0iNTc5Ljk4NDQiLz48ZWxsaXBzZSBjeD0iMTA2Ljc1IiBjeT0iNTk1Ljk4NDQiIGZpbGw9IiNBREQxQjIiIHJ4PSIxMSIgcnk9IjExIiBzdHlsZT0ic3Ryb2tlOiMxODE4MTg7c3Ryb2tlLXdpZHRoOjEuMDsiLz48cGF0aCBkPSJNMTA0LjM3NSw2MDAuMjM0NCBMMTA0LjM3NSw2MDEuOTg0NCBMMTA5LjMxMjUsNjAxLjk4NDQgTDEwOS4zMTI1LDYwMC4yMzQ0IEwxMDQuMzc1LDYwMC4yMzQ0IFogTTEwNS4wNjI1LDYwMC45MjE5IFExMDUuMDYyNSw2MDAuOTIxOSAxMDUuMDYyNSw1OTEuNzM0NCBMMTAzLjMxMjUsNTkxLjczNDQgUTEwMy4zMTI1LDU5MS43MzQ0IDEwMy4zMTI1LDYwMC45MjE5IEwxMDUuMDYyNSw2MDAuOTIxOSBaIE0xMDguNjI1LDYwMC45MjE5IEwxMTAuMzc1LDYwMC45MjE5IFExMTAuMzc1LDYwMC45MjE5IDExMC4zNzUsNTk4LjEwOTQgTDEwOC42MjUsNTk4LjEwOTQgUTEwOC42MjUsNTk4LjEwOTQgMTA4LjYyNSw2MDAuOTIxOSBaIE0xMDguNjI1LDU5MS43MzQ0IFExMDguNjI1LDU5MS43MzQ0IDEwOC42MjUsNTk0LjU0NjkgTDExMC4zNzUsNTk0LjU0NjkgUTExMC4zNzUsNTk0LjU0NjkgMTEwLjM3NSw1OTEuNzM0NCBMMTA4LjYyNSw1OTEuNzM0NCBaIE0xMDQuMzc1LDU5Mi40MjE5IEwxMDkuMzEyNSw1OTIuNDIxOSBMMTA5LjMxMjUsNTkwLjY3MTkgTDEwNC4zNzUsNTkwLjY3MTkgTDEwNC4zNzUsNTkyLjQyMTkgWiAiIGZpbGw9IiMwMDAwMDAiLz48dGV4dCBmaWxsPSIjMDAwMDAwIiBmb250LWZhbWlseT0ic2Fucy1zZXJpZiIgZm9udC1zaXplPSIxNCIgbGVuZ3RoQWRqdXN0PSJzcGFjaW5nIiB0ZXh0TGVuZ3RoPSIyOCIgeD0iMTI3LjI1IiB5PSI2MDEuNzI2NiI+VXNlcjwvdGV4dD48bGluZSBzdHlsZT0ic3Ryb2tlOiMxODE4MTg7c3Ryb2tlLXdpZHRoOjAuNTsiIHgxPSI1Ni41IiB4Mj0iMTkzLjUiIHkxPSI2MTEuOTg0NCIgeTI9IjYxMS45ODQ0Ii8+PHJlY3QgZmlsbD0ibm9uZSIgaGVpZ2h0PSI2IiBzdHlsZT0ic3Ryb2tlOiNDODI5MzA7c3Ryb2tlLXdpZHRoOjEuMDsiIHdpZHRoPSI2IiB4PSI2My41IiB5PSI2MjEuOTc2NiIvPjx0ZXh0IGZpbGw9IiMwMDAwMDAiIGZvbnQtZmFtaWx5PSJzYW5zLXNlcmlmIiBmb250LXNpemU9IjE0IiBsZW5ndGhBZGp1c3Q9InNwYWNpbmciIHRleHRMZW5ndGg9IjY0IiB4PSI3NS41IiB5PSI2MjkuMjE4OCI+dXNlcm5hbWU6PC90ZXh0Pjx0ZXh0IGZpbGw9IiMwMDAwMDAiIGZvbnQtZmFtaWx5PSJzYW5zLXNlcmlmIiBmb250LXNpemU9IjE0IiBsZW5ndGhBZGp1c3Q9InNwYWNpbmciIHRleHRMZW5ndGg9IjciIHg9IjEzOS41IiB5PSI2MjkuMjE4OCI+JiMxNjA7PC90ZXh0Pjx0ZXh0IGZpbGw9IiMwMDAwMDAiIGZvbnQtZmFtaWx5PSJzYW5zLXNlcmlmIiBmb250LXNpemU9IjE0IiBsZW5ndGhBZGp1c3Q9InNwYWNpbmciIHRleHRMZW5ndGg9IjQyIiB4PSIxNDYuNSIgeT0iNjI5LjIxODgiPlN0cmluZzwvdGV4dD48cmVjdCBmaWxsPSJub25lIiBoZWlnaHQ9IjYiIHN0eWxlPSJzdHJva2U6I0M4MjkzMDtzdHJva2Utd2lkdGg6MS4wOyIgd2lkdGg9IjYiIHg9IjYzLjUiIHk9IjYzNi45NjA5Ii8+PHRleHQgZmlsbD0iIzAwMDAwMCIgZm9udC1mYW1pbHk9InNhbnMtc2VyaWYiIGZvbnQtc2l6ZT0iMTQiIGxlbmd0aEFkanVzdD0ic3BhY2luZyIgdGV4dExlbmd0aD0iNjQiIHg9Ijc1LjUiIHk9IjY0NC4yMDMxIj5wYXNzd29yZDo8L3RleHQ+PHRleHQgZmlsbD0iIzAwMDAwMCIgZm9udC1mYW1pbHk9InNhbnMtc2VyaWYiIGZvbnQtc2l6ZT0iMTQiIGxlbmd0aEFkanVzdD0ic3BhY2luZyIgdGV4dExlbmd0aD0iNyIgeD0iMTM5LjUiIHk9IjY0NC4yMDMxIj4mIzE2MDs8L3RleHQ+PHRleHQgZmlsbD0iIzAwMDAwMCIgZm9udC1mYW1pbHk9InNhbnMtc2VyaWYiIGZvbnQtc2l6ZT0iMTQiIGxlbmd0aEFkanVzdD0ic3BhY2luZyIgdGV4dExlbmd0aD0iNDIiIHg9IjE0Ni41IiB5PSI2NDQuMjAzMSI+U3RyaW5nPC90ZXh0Pjx0ZXh0IGZpbGw9IiMwMDAwMDAiIGZvbnQtZmFtaWx5PSJzYW5zLXNlcmlmIiBmb250LXNpemU9IjE0IiBsZW5ndGhBZGp1c3Q9InNwYWNpbmciIHRleHRMZW5ndGg9IjIxIiB4PSI3NS41IiB5PSI2NTkuMTg3NSI+Li4uPC90ZXh0PjxsaW5lIHN0eWxlPSJzdHJva2U6IzE4MTgxODtzdHJva2Utd2lkdGg6MC41OyIgeDE9IjU2LjUiIHgyPSIxOTMuNSIgeTE9IjY2NC45Mzc1IiB5Mj0iNjY0LjkzNzUiLz48L2c+PCEtLWNsYXNzIEpXVFV0aWxzLS0+PGcgaWQ9ImVsZW1fSldUVXRpbHMiPjxyZWN0IGNvZGVMaW5lPSIzMiIgZmlsbD0iI0YxRjFGMSIgaGVpZ2h0PSI5Mi45NTMxIiBpZD0iSldUVXRpbHMiIHJ4PSIyLjUiIHJ5PSIyLjUiIHN0eWxlPSJzdHJva2U6IzE4MTgxODtzdHJva2Utd2lkdGg6MC41OyIgd2lkdGg9IjIxNyIgeD0iMjYyLjUiIHk9IjQxOS40ODQ0Ii8+PGVsbGlwc2UgY3g9IjMzOC4yNSIgY3k9IjQzNS40ODQ0IiBmaWxsPSIjQUREMUIyIiByeD0iMTEiIHJ5PSIxMSIgc3R5bGU9InN0cm9rZTojMTgxODE4O3N0cm9rZS13aWR0aDoxLjA7Ii8+PHBhdGggZD0iTTMzNS44NzUsNDM5LjczNDQgTDMzNS44NzUsNDQxLjQ4NDQgTDM0MC44MTI1LDQ0MS40ODQ0IEwzNDAuODEyNSw0MzkuNzM0NCBMMzM1Ljg3NSw0MzkuNzM0NCBaIE0zMzYuNTYyNSw0NDAuNDIxOSBRMzM2LjU2MjUsNDQwLjQyMTkgMzM2LjU2MjUsNDMxLjIzNDQgTDMzNC44MTI1LDQzMS4yMzQ0IFEzMzQuODEyNSw0MzEuMjM0NCAzMzQuODEyNSw0NDAuNDIxOSBMMzM2LjU2MjUsNDQwLjQyMTkgWiBNMzQwLjEyNSw0NDAuNDIxOSBMMzQxLjg3NSw0NDAuNDIxOSBRMzQxLjg3NSw0NDAuNDIxOSAzNDEuODc1LDQzNy42MDk0IEwzNDAuMTI1LDQzNy42MDk0IFEzNDAuMTI1LDQzNy42MDk0IDM0MC4xMjUsNDQwLjQyMTkgWiBNMzQwLjEyNSw0MzEuMjM0NCBRMzQwLjEyNSw0MzEuMjM0NCAzNDAuMTI1LDQzNC4wNDY5IEwzNDEuODc1LDQzNC4wNDY5IFEzNDEuODc1LDQzNC4wNDY5IDM0MS44NzUsNDMxLjIzNDQgTDM0MC4xMjUsNDMxLjIzNDQgWiBNMzM1Ljg3NSw0MzEuOTIxOSBMMzQwLjgxMjUsNDMxLjkyMTkgTDM0MC44MTI1LDQzMC4xNzE5IEwzMzUuODc1LDQzMC4xNzE5IEwzMzUuODc1LDQzMS45MjE5IFogIiBmaWxsPSIjMDAwMDAwIi8+PHRleHQgZmlsbD0iIzAwMDAwMCIgZm9udC1mYW1pbHk9InNhbnMtc2VyaWYiIGZvbnQtc2l6ZT0iMTQiIGxlbmd0aEFkanVzdD0ic3BhY2luZyIgdGV4dExlbmd0aD0iNTciIHg9IjM1OC43NSIgeT0iNDQxLjIyNjYiPkpXVFV0aWxzPC90ZXh0PjxsaW5lIHN0eWxlPSJzdHJva2U6IzE4MTgxODtzdHJva2Utd2lkdGg6MC41OyIgeDE9IjI2My41IiB4Mj0iNDc4LjUiIHkxPSI0NTEuNDg0NCIgeTI9IjQ1MS40ODQ0Ii8+PGxpbmUgc3R5bGU9InN0cm9rZTojMTgxODE4O3N0cm9rZS13aWR0aDowLjU7IiB4MT0iMjYzLjUiIHgyPSI0NzguNSIgeTE9IjQ1OS40ODQ0IiB5Mj0iNDU5LjQ4NDQiLz48ZWxsaXBzZSBjeD0iMjczLjUiIGN5PSI0NzIuNDc2NiIgZmlsbD0iIzg0QkU4NCIgcng9IjMiIHJ5PSIzIiBzdHlsZT0ic3Ryb2tlOiMwMzgwNDg7c3Ryb2tlLXdpZHRoOjEuMDsiLz48dGV4dCBmaWxsPSIjMDAwMDAwIiBmb250LWZhbWlseT0ic2Fucy1zZXJpZiIgZm9udC1zaXplPSIxNCIgbGVuZ3RoQWRqdXN0PSJzcGFjaW5nIiB0ZXh0TGVuZ3RoPSIxNDIiIHg9IjI4Mi41IiB5PSI0NzYuNzE4OCI+Z2VuZXJhdGVUb2tlbih1c2VyKTo8L3RleHQ+PHRleHQgZmlsbD0iIzAwMDAwMCIgZm9udC1mYW1pbHk9InNhbnMtc2VyaWYiIGZvbnQtc2l6ZT0iMTQiIGxlbmd0aEFkanVzdD0ic3BhY2luZyIgdGV4dExlbmd0aD0iNyIgeD0iNDI0LjUiIHk9IjQ3Ni43MTg4Ij4mIzE2MDs8L3RleHQ+PHRleHQgZmlsbD0iIzAwMDAwMCIgZm9udC1mYW1pbHk9InNhbnMtc2VyaWYiIGZvbnQtc2l6ZT0iMTQiIGxlbmd0aEFkanVzdD0ic3BhY2luZyIgdGV4dExlbmd0aD0iNDIiIHg9IjQzMS41IiB5PSI0NzYuNzE4OCI+U3RyaW5nPC90ZXh0PjxlbGxpcHNlIGN4PSIyNzMuNSIgY3k9IjQ5NC45NTMxIiBmaWxsPSIjODRCRTg0IiByeD0iMyIgcnk9IjMiIHN0eWxlPSJzdHJva2U6IzAzODA0ODtzdHJva2Utd2lkdGg6MS4wOyIvPjx0ZXh0IGZpbGw9IiMwMDAwMDAiIGZvbnQtZmFtaWx5PSJzYW5zLXNlcmlmIiBmb250LXNpemU9IjE0IiBsZW5ndGhBZGp1c3Q9InNwYWNpbmciIHRleHRMZW5ndGg9IjE0OSIgeD0iMjgyLjUiIHk9IjQ5MS43MDMxIj52YWxpZGF0ZVRva2VuKHRva2VuKTo8L3RleHQ+PHRleHQgZmlsbD0iIzAwMDAwMCIgZm9udC1mYW1pbHk9InNhbnMtc2VyaWYiIGZvbnQtc2l6ZT0iMTQiIGxlbmd0aEFkanVzdD0ic3BhY2luZyIgdGV4dExlbmd0aD0iNDkiIHg9IjI4Mi41IiB5PSI1MDYuNjg3NSI+Ym9vbGVhbjwvdGV4dD48L2c+PCEtLWNsYXNzIFBhc3N3b3JkVXRpbHMtLT48ZyBpZD0iZWxlbV9QYXNzd29yZFV0aWxzIj48cmVjdCBjb2RlTGluZT0iMzciIGZpbGw9IiNGMUYxRjEiIGhlaWdodD0iMTA3LjkzNzUiIGlkPSJQYXNzd29yZFV0aWxzIiByeD0iMi41IiByeT0iMi41IiBzdHlsZT0ic3Ryb2tlOiMxODE4MTg7c3Ryb2tlLXdpZHRoOjAuNTsiIHdpZHRoPSIyMTciIHg9IjUxNC41IiB5PSI0MTEuOTg0NCIvPjxlbGxpcHNlIGN4PSI1NzIuNzUiIGN5PSI0MjcuOTg0NCIgZmlsbD0iI0FERDFCMiIgcng9IjExIiByeT0iMTEiIHN0eWxlPSJzdHJva2U6IzE4MTgxODtzdHJva2Utd2lkdGg6MS4wOyIvPjxwYXRoIGQ9Ik01NzAuMzc1LDQzMi4yMzQ0IEw1NzAuMzc1LDQzMy45ODQ0IEw1NzUuMzEyNSw0MzMuOTg0NCBMNTc1LjMxMjUsNDMyLjIzNDQgTDU3MC4zNzUsNDMyLjIzNDQgWiBNNTcxLjA2MjUsNDMyLjkyMTkgUTU3MS4wNjI1LDQzMi45MjE5IDU3MS4wNjI1LDQyMy43MzQ0IEw1NjkuMzEyNSw0MjMuNzM0NCBRNTY5LjMxMjUsNDIzLjczNDQgNTY5LjMxMjUsNDMyLjkyMTkgTDU3MS4wNjI1LDQzMi45MjE5IFogTTU3NC42MjUsNDMyLjkyMTkgTDU3Ni4zNzUsNDMyLjkyMTkgUTU3Ni4zNzUsNDMyLjkyMTkgNTc2LjM3NSw0MzAuMTA5NCBMNTc0LjYyNSw0MzAuMTA5NCBRNTc0LjYyNSw0MzAuMTA5NCA1NzQuNjI1LDQzMi45MjE5IFogTTU3NC42MjUsNDIzLjczNDQgUTU3NC42MjUsNDIzLjczNDQgNTc0LjYyNSw0MjYuNTQ2OSBMNTc2LjM3NSw0MjYuNTQ2OSBRNTc2LjM3NSw0MjYuNTQ2OSA1NzYuMzc1LDQyMy43MzQ0IEw1NzQuNjI1LDQyMy43MzQ0IFogTTU3MC4zNzUsNDI0LjQyMTkgTDU3NS4zMTI1LDQyNC40MjE5IEw1NzUuMzEyNSw0MjIuNjcxOSBMNTcwLjM3NSw0MjIuNjcxOSBMNTcwLjM3NSw0MjQuNDIxOSBaICIgZmlsbD0iIzAwMDAwMCIvPjx0ZXh0IGZpbGw9IiMwMDAwMDAiIGZvbnQtZmFtaWx5PSJzYW5zLXNlcmlmIiBmb250LXNpemU9IjE0IiBsZW5ndGhBZGp1c3Q9InNwYWNpbmciIHRleHRMZW5ndGg9IjkyIiB4PSI1OTMuMjUiIHk9IjQzMy43MjY2Ij5QYXNzd29yZFV0aWxzPC90ZXh0PjxsaW5lIHN0eWxlPSJzdHJva2U6IzE4MTgxODtzdHJva2Utd2lkdGg6MC41OyIgeDE9IjUxNS41IiB4Mj0iNzMwLjUiIHkxPSI0NDMuOTg0NCIgeTI9IjQ0My45ODQ0Ii8+PGxpbmUgc3R5bGU9InN0cm9rZTojMTgxODE4O3N0cm9rZS13aWR0aDowLjU7IiB4MT0iNTE1LjUiIHgyPSI3MzAuNSIgeTE9IjQ1MS45ODQ0IiB5Mj0iNDUxLjk4NDQiLz48ZWxsaXBzZSBjeD0iNTI1LjUiIGN5PSI0NzIuNDY4OCIgZmlsbD0iIzg0QkU4NCIgcng9IjMiIHJ5PSIzIiBzdHlsZT0ic3Ryb2tlOiMwMzgwNDg7c3Ryb2tlLXdpZHRoOjEuMDsiLz48dGV4dCBmaWxsPSIjMDAwMDAwIiBmb250LWZhbWlseT0ic2Fucy1zZXJpZiIgZm9udC1zaXplPSIxNCIgbGVuZ3RoQWRqdXN0PSJzcGFjaW5nIiB0ZXh0TGVuZ3RoPSIxODYiIHg9IjUzNC41IiB5PSI0NjkuMjE4OCI+ZW5jcnlwdFBhc3N3b3JkKHBhc3N3b3JkKTo8L3RleHQ+PHRleHQgZmlsbD0iIzAwMDAwMCIgZm9udC1mYW1pbHk9InNhbnMtc2VyaWYiIGZvbnQtc2l6ZT0iMTQiIGxlbmd0aEFkanVzdD0ic3BhY2luZyIgdGV4dExlbmd0aD0iNDIiIHg9IjUzNC41IiB5PSI0ODQuMjAzMSI+U3RyaW5nPC90ZXh0PjxlbGxpcHNlIGN4PSI1MjUuNSIgY3k9IjUwMi40Mzc1IiBmaWxsPSIjODRCRTg0IiByeD0iMyIgcnk9IjMiIHN0eWxlPSJzdHJva2U6IzAzODA0ODtzdHJva2Utd2lkdGg6MS4wOyIvPjx0ZXh0IGZpbGw9IiMwMDAwMDAiIGZvbnQtZmFtaWx5PSJzYW5zLXNlcmlmIiBmb250LXNpemU9IjE0IiBsZW5ndGhBZGp1c3Q9InNwYWNpbmciIHRleHRMZW5ndGg9IjE3MSIgeD0iNTM0LjUiIHk9IjQ5OS4xODc1Ij52ZXJpZnlQYXNzd29yZChwYXNzd29yZCw8L3RleHQ+PHRleHQgZmlsbD0iIzAwMDAwMCIgZm9udC1mYW1pbHk9InNhbnMtc2VyaWYiIGZvbnQtc2l6ZT0iMTQiIGxlbmd0aEFkanVzdD0ic3BhY2luZyIgdGV4dExlbmd0aD0iMTM1IiB4PSI1MzQuNSIgeT0iNTE0LjE3MTkiPmVuY3J5cHRlZFBhc3N3b3JkKTo8L3RleHQ+PHRleHQgZmlsbD0iIzAwMDAwMCIgZm9udC1mYW1pbHk9InNhbnMtc2VyaWYiIGZvbnQtc2l6ZT0iMTQiIGxlbmd0aEFkanVzdD0ic3BhY2luZyIgdGV4dExlbmd0aD0iNyIgeD0iNjY5LjUiIHk9IjUxNC4xNzE5Ij4mIzE2MDs8L3RleHQ+PHRleHQgZmlsbD0iIzAwMDAwMCIgZm9udC1mYW1pbHk9InNhbnMtc2VyaWYiIGZvbnQtc2l6ZT0iMTQiIGxlbmd0aEFkanVzdD0ic3BhY2luZyIgdGV4dExlbmd0aD0iNDkiIHg9IjY3Ni41IiB5PSI1MTQuMTcxOSI+Ym9vbGVhbjwvdGV4dD48L2c+PCEtLXJldmVyc2UgbGluayBBdXRoU2VydmljZSB0byBBdXRoU2VydmljZUltcGwtLT48ZyBpZD0ibGlua19BdXRoU2VydmljZV9BdXRoU2VydmljZUltcGwiPjxwYXRoIGQ9Ik0yODguMzYzMiwxNjguNjA5OSBDMzAxLjI3MzIsMTg2LjMxOTkgMzA2LjQyLDE5My4zODQ0IDMyMS4yOCwyMTMuNzc0NCAiIGZpbGw9Im5vbmUiIGlkPSJBdXRoU2VydmljZS1iYWNrdG8tQXV0aFNlcnZpY2VJbXBsIiBzdHlsZT0ic3Ryb2tlOiM2NjY2NjY7c3Ryb2tlLXdpZHRoOjEuMDtzdHJva2UtZGFzaGFycmF5OjcuMCw3LjA7Ii8+PHBvbHlnb24gZmlsbD0ibm9uZSIgcG9pbnRzPSIyNzcuNzYsMTU0LjA2NDQsMjgzLjUxNDcsMTcyLjE0NDMsMjkzLjIxMTcsMTY1LjA3NTUsMjc3Ljc2LDE1NC4wNjQ0IiBzdHlsZT0ic3Ryb2tlOiM2NjY2NjY7c3Ryb2tlLXdpZHRoOjEuMDsiLz48L2c+PCEtLWxpbmsgQXV0aENvbnRyb2xsZXIgdG8gQXV0aFNlcnZpY2VJbXBsLS0+PGcgaWQ9ImxpbmtfQXV0aENvbnRyb2xsZXJfQXV0aFNlcnZpY2VJbXBsIj48cGF0aCBjb2RlTGluZT0iNDMiIGQ9Ik00NzEuMTUsMTQ2LjgxNDQgQzQ1Ny4xOSwxNjUuNjY0NCA0NDIuMzIxOCwxODUuNzIzMyA0MjUuMDgxOCwyMDguOTkzMyAiIGZpbGw9Im5vbmUiIGlkPSJBdXRoQ29udHJvbGxlci10by1BdXRoU2VydmljZUltcGwiIHN0eWxlPSJzdHJva2U6IzY2NjY2NjtzdHJva2Utd2lkdGg6MS4wOyIvPjxwb2x5Z29uIGZpbGw9IiM2NjY2NjYiIHBvaW50cz0iNDIxLjUxLDIxMy44MTQ0LDQzMC4wODE3LDIwOC45NjQsNDI0LjQ4NjUsMjA5Ljc5NjgsNDIzLjY1MzYsMjA0LjIwMTYsNDIxLjUxLDIxMy44MTQ0IiBzdHlsZT0ic3Ryb2tlOiM2NjY2NjY7c3Ryb2tlLXdpZHRoOjEuMDsiLz48L2c+PCEtLWxpbmsgQXV0aFNlcnZpY2VJbXBsIHRvIFVzZXJSZXBvc2l0b3J5LS0+PGcgaWQ9ImxpbmtfQXV0aFNlcnZpY2VJbXBsX1VzZXJSZXBvc2l0b3J5Ij48cGF0aCBjb2RlTGluZT0iNDQiIGQ9Ik0yNzguMzUsMzUyLjE1NDQgQzI0NC4wMywzNzcuNDA0NCAyMTEuMTcyNSw0MDEuNTc4MiAxODEuNzUyNSw0MjMuMjI4MiAiIGZpbGw9Im5vbmUiIGlkPSJBdXRoU2VydmljZUltcGwtdG8tVXNlclJlcG9zaXRvcnkiIHN0eWxlPSJzdHJva2U6IzY2NjY2NjtzdHJva2Utd2lkdGg6MS4wOyIvPjxwb2x5Z29uIGZpbGw9IiM2NjY2NjYiIHBvaW50cz0iMTc2LjkyLDQyNi43ODQ0LDE4Ni41Mzk2LDQyNC42NzE3LDE4MC45NDcxLDQyMy44MjA5LDE4MS43OTgsNDE4LjIyODQsMTc2LjkyLDQyNi43ODQ0IiBzdHlsZT0ic3Ryb2tlOiM2NjY2NjY7c3Ryb2tlLXdpZHRoOjEuMDsiLz48L2c+PCEtLWxpbmsgQXV0aFNlcnZpY2VJbXBsIHRvIEpXVFV0aWxzLS0+PGcgaWQ9ImxpbmtfQXV0aFNlcnZpY2VJbXBsX0pXVFV0aWxzIj48cGF0aCBjb2RlTGluZT0iNDUiIGQ9Ik0zNzEsMzUyLjE1NDQgQzM3MSwzNzQuNjA0NCAzNzEsMzkzLjAwNDQgMzcxLDQxMy4zNTQ0ICIgZmlsbD0ibm9uZSIgaWQ9IkF1dGhTZXJ2aWNlSW1wbC10by1KV1RVdGlscyIgc3R5bGU9InN0cm9rZTojNjY2NjY2O3N0cm9rZS13aWR0aDoxLjA7Ii8+PHBvbHlnb24gZmlsbD0iIzY2NjY2NiIgcG9pbnRzPSIzNzEsNDE5LjM1NDQsMzc1LDQxMC4zNTQ0LDM3MSw0MTQuMzU0NCwzNjcsNDEwLjM1NDQsMzcxLDQxOS4zNTQ0IiBzdHlsZT0ic3Ryb2tlOiM2NjY2NjY7c3Ryb2tlLXdpZHRoOjEuMDsiLz48L2c+PCEtLWxpbmsgQXV0aFNlcnZpY2VJbXBsIHRvIFBhc3N3b3JkVXRpbHMtLT48ZyBpZD0ibGlua19BdXRoU2VydmljZUltcGxfUGFzc3dvcmRVdGlscyI+PHBhdGggY29kZUxpbmU9IjQ2IiBkPSJNNDY1LjkxLDM1Mi4xNTQ0IEM0OTMuNCwzNzEuODk0NCA1MTguMTE3MiwzODkuNjUzNSA1NDQuMTE3Miw0MDguMzMzNSAiIGZpbGw9Im5vbmUiIGlkPSJBdXRoU2VydmljZUltcGwtdG8tUGFzc3dvcmRVdGlscyIgc3R5bGU9InN0cm9rZTojNjY2NjY2O3N0cm9rZS13aWR0aDoxLjA7Ii8+PHBvbHlnb24gZmlsbD0iIzY2NjY2NiIgcG9pbnRzPSI1NDguOTksNDExLjgzNDQsNTQ0LjAxNDgsNDAzLjMzNDUsNTQ0LjkyOTQsNDA4LjkxNyw1MzkuMzQ2OSw0MDkuODMxNSw1NDguOTksNDExLjgzNDQiIHN0eWxlPSJzdHJva2U6IzY2NjY2NjtzdHJva2Utd2lkdGg6MS4wOyIvPjwvZz48IS0tbGluayBVc2VyUmVwb3NpdG9yeSB0byBVc2VyLS0+PGcgaWQ9ImxpbmtfVXNlclJlcG9zaXRvcnlfVXNlciI+PHBhdGggY29kZUxpbmU9IjQ3IiBkPSJNMTI1LDUwNS4zNTQ0IEMxMjUsNTI3Ljc5NDQgMTI1LDU1MC4yNzQ0IDEyNSw1NzMuODY0NCAiIGZpbGw9Im5vbmUiIGlkPSJVc2VyUmVwb3NpdG9yeS10by1Vc2VyIiBzdHlsZT0ic3Ryb2tlOiM2NjY2NjY7c3Ryb2tlLXdpZHRoOjEuMDsiLz48cG9seWdvbiBmaWxsPSIjNjY2NjY2IiBwb2ludHM9IjEyNSw1NzkuODY0NCwxMjksNTcwLjg2NDQsMTI1LDU3NC44NjQ0LDEyMSw1NzAuODY0NCwxMjUsNTc5Ljg2NDQiIHN0eWxlPSJzdHJva2U6IzY2NjY2NjtzdHJva2Utd2lkdGg6MS4wOyIvPjwvZz48IS0tU1JDPVtiUEFuUmppbTQ4UHRGU05MS3VuNHFmQjkyMG9xY0g4YVc5NzRvMVpHcWJiY0pQNDJVT2ZoNTdzMTBYYXg1RWRJSC1XU2Y2X1p2WkxBb2Y4aUFpdUdHMTk4dGlfbF9abFQxb3VKS1FQT1FXNEJlaUFDdWJZcExQSG5NZklwcWcxRWIySUs1MktnWm1sMTk5TXYyMHNiV2lfWXEtRG11ZXdjYm5UbnBXb1hqYVR0Zi14NjV1ZUFnbW0ydVlHR05kdS1SUHZfX0ZscmlGZC0gLSAtTkZxLVJuUm4wS0I1Y28zNjdHM0d4V3ZFR0E0czhvNHBXVW16UzA4MTdDNkZYT3FpQVhqSDgyVEhLMDI0NmVaQ2kzdnJJbzc4LVdpRGdMcWtkR25oX1BycHhTLWo1cGJjMzVrNFB6cC1ydzJwWHk2cDIyUXo5U1BabEdwYVdERVNpQjBUbi1DQlN6Q2RsdThKWm81SFJBUzU5d0ZPQWZqd3o1ZHJTcTlJeEMyQ3ZsUndmTDdNWlNyRDU5VHJqOXRiXzVoWHMtYlJPWlNveEpKLWpmcE1nWG13dHQyakdzbXZydWZKZmI5c1V0MWt5dVlZQVZyMUpVc2lYR2VjUTREc2c5c3pBNjdrNEd4ZmRXUVFpV3p4TUljTDgyY1ZKZk5rRlE1MldKbEl3ZTJIeGl3cmdMMjNNVmhyXzlaWGUwZmZGVHBNdi13dzB0anM0dXhhekdxOXllZi1jRG9KdjlFb2h4V2x3YXpGdnFhLTBfXS0tPjwvZz48L3N2Zz4=;" vertex="1" parent="1">
            <mxGeometry x="37" y="80" width="754" height="694" as="geometry" />
          </mxCell>
        </UserObject>
        <UserObject label="" plantUmlData="{&#xa;  &quot;data&quot;: &quot;@startuml\n\nclass Volunteer {\n  - id: int\n  - name: String\n  - ...\n}\n\nclass Task {\n  - id: int\n  - name: String\n  - description: String\n  - status: String\n  - volunteer: Volunteer\n  - ...\n}\n\nclass Record {\n  - id: int\n  - filename: String\n  - uploadTime: Date\n  - cat: Cat\n  - ...\n}\n\ninterface VolunteerService {\n  + applyVolunteer(volunteerInfo): void\n  + approveVolunteer(volunteerId, decision): void\n  + getVolunteerList(): List&lt;Volunteer&gt;\n}\n\nclass VolunteerServiceImpl implements VolunteerService {\n  - volunteerRepository: VolunteerRepository\n  ...\n}\n\ninterface VolunteerRepository {\n  + saveVolunteer(volunteerInfo): void\n  + updateVolunteerStatus(volunteerId, status): void\n  + findAllVolunteers(): List&lt;Volunteer&gt;\n}\n\nclass VolunteerRepositoryImpl implements VolunteerRepository {\n  ...\n}\n\ninterface TaskService {\n  + createTask(taskInfo): int\n  + assignTask(taskId, volunteerId): void\n  + updateTaskProgress(taskId, progressInfo): void\n  + getTask(taskId): Task\n}\n\nclass TaskServiceImpl implements TaskService {\n  - taskRepository: TaskRepository\n  ...\n}\n\ninterface TaskRepository {\n  + saveTask(taskInfo): int\n  + updateTask(taskInfo): void\n  + findById(taskId): Task\n}\n\nclass TaskRepositoryImpl implements TaskRepository {\n  ...\n}\n\ninterface RecordService {\n  + uploadRecord(recordFile): void\n  + getRecord(recordId): Record\n}\n\nclass RecordServiceImpl implements RecordService {\n  - recordRepository: RecordRepository\n  ...\n}\n\ninterface RecordRepository {\n  + saveRecord(recordInfo): void\n  + findById(recordId): Record\n}\n\nclass RecordRepositoryImpl implements RecordRepository {\n  ...\n}\n\nVolunteerController --&gt; VolunteerService\nTaskController --&gt; TaskService\nRecordController --&gt; RecordService\n\nVolunteerService --&gt; VolunteerRepository\nTaskService --&gt; TaskRepository\nRecordService --&gt; RecordRepository\n\nTask *- Volunteer\nRecord *- Cat\n\n@enduml&quot;,&#xa;  &quot;format&quot;: &quot;svg&quot;&#xa;}" id="Gy5BP04a-Xlsz3oRnTCF-3">
          <mxCell style="shape=image;noLabel=1;verticalAlign=top;aspect=fixed;imageAspect=0;image=data:image/svg+xml,PD94bWwgdmVyc2lvbj0iMS4wIiBlbmNvZGluZz0idXMtYXNjaWkiIHN0YW5kYWxvbmU9Im5vIj8+PHN2ZyB4bWxucz0iaHR0cDovL3d3dy53My5vcmcvMjAwMC9zdmciIHhtbG5zOnhsaW5rPSJodHRwOi8vd3d3LnczLm9yZy8xOTk5L3hsaW5rIiBjb250ZW50U3R5bGVUeXBlPSJ0ZXh0L2NzcyIgaGVpZ2h0PSI1OTVweCIgcHJlc2VydmVBc3BlY3RSYXRpbz0ibm9uZSIgc3R5bGU9IndpZHRoOjIwODRweDtoZWlnaHQ6NTk1cHg7YmFja2dyb3VuZDojRkZGRkZGOyIgdmVyc2lvbj0iMS4xIiB2aWV3Qm94PSIwIDAgMjA4NCA1OTUiIHdpZHRoPSIyMDg0cHgiIHpvb21BbmRQYW49Im1hZ25pZnkiPjxkZWZzLz48Zz48IS0tY2xhc3MgVm9sdW50ZWVyLS0+PGcgaWQ9ImVsZW1fVm9sdW50ZWVyIj48cmVjdCBjb2RlTGluZT0iMSIgZmlsbD0iI0YxRjFGMSIgaGVpZ2h0PSI5Mi45NTMxIiBpZD0iVm9sdW50ZWVyIiByeD0iMi41IiByeT0iMi41IiBzdHlsZT0ic3Ryb2tlOiMxODE4MTg7c3Ryb2tlLXdpZHRoOjAuNTsiIHdpZHRoPSIxMTEiIHg9IjIwOC41IiB5PSIyOS41Ii8+PGVsbGlwc2UgY3g9IjIzMC43IiBjeT0iNDUuNSIgZmlsbD0iI0FERDFCMiIgcng9IjExIiByeT0iMTEiIHN0eWxlPSJzdHJva2U6IzE4MTgxODtzdHJva2Utd2lkdGg6MS4wOyIvPjxwYXRoIGQ9Ik0yMjguMzI1LDQ5Ljc1IEwyMjguMzI1LDUxLjUgTDIzMy4yNjI1LDUxLjUgTDIzMy4yNjI1LDQ5Ljc1IEwyMjguMzI1LDQ5Ljc1IFogTTIyOS4wMTI1LDUwLjQzNzUgUTIyOS4wMTI1LDUwLjQzNzUgMjI5LjAxMjUsNDEuMjUgTDIyNy4yNjI1LDQxLjI1IFEyMjcuMjYyNSw0MS4yNSAyMjcuMjYyNSw1MC40Mzc1IEwyMjkuMDEyNSw1MC40Mzc1IFogTTIzMi41NzUsNTAuNDM3NSBMMjM0LjMyNSw1MC40Mzc1IFEyMzQuMzI1LDUwLjQzNzUgMjM0LjMyNSw0Ny42MjUgTDIzMi41NzUsNDcuNjI1IFEyMzIuNTc1LDQ3LjYyNSAyMzIuNTc1LDUwLjQzNzUgWiBNMjMyLjU3NSw0MS4yNSBRMjMyLjU3NSw0MS4yNSAyMzIuNTc1LDQ0LjA2MjUgTDIzNC4zMjUsNDQuMDYyNSBRMjM0LjMyNSw0NC4wNjI1IDIzNC4zMjUsNDEuMjUgTDIzMi41NzUsNDEuMjUgWiBNMjI4LjMyNSw0MS45Mzc1IEwyMzMuMjYyNSw0MS45Mzc1IEwyMzMuMjYyNSw0MC4xODc1IEwyMjguMzI1LDQwLjE4NzUgTDIyOC4zMjUsNDEuOTM3NSBaICIgZmlsbD0iIzAwMDAwMCIvPjx0ZXh0IGZpbGw9IiMwMDAwMDAiIGZvbnQtZmFtaWx5PSJzYW5zLXNlcmlmIiBmb250LXNpemU9IjE0IiBsZW5ndGhBZGp1c3Q9InNwYWNpbmciIHRleHRMZW5ndGg9IjYzIiB4PSIyNDYuMyIgeT0iNTEuMjQyMiI+Vm9sdW50ZWVyPC90ZXh0PjxsaW5lIHN0eWxlPSJzdHJva2U6IzE4MTgxODtzdHJva2Utd2lkdGg6MC41OyIgeDE9IjIwOS41IiB4Mj0iMzE4LjUiIHkxPSI2MS41IiB5Mj0iNjEuNSIvPjxyZWN0IGZpbGw9Im5vbmUiIGhlaWdodD0iNiIgc3R5bGU9InN0cm9rZTojQzgyOTMwO3N0cm9rZS13aWR0aDoxLjA7IiB3aWR0aD0iNiIgeD0iMjE2LjUiIHk9IjcxLjQ5MjIiLz48dGV4dCBmaWxsPSIjMDAwMDAwIiBmb250LWZhbWlseT0ic2Fucy1zZXJpZiIgZm9udC1zaXplPSIxNCIgbGVuZ3RoQWRqdXN0PSJzcGFjaW5nIiB0ZXh0TGVuZ3RoPSI0OSIgeD0iMjI4LjUiIHk9Ijc4LjczNDQiPmlkOiBpbnQ8L3RleHQ+PHJlY3QgZmlsbD0ibm9uZSIgaGVpZ2h0PSI2IiBzdHlsZT0ic3Ryb2tlOiNDODI5MzA7c3Ryb2tlLXdpZHRoOjEuMDsiIHdpZHRoPSI2IiB4PSIyMTYuNSIgeT0iODYuNDc2NiIvPjx0ZXh0IGZpbGw9IiMwMDAwMDAiIGZvbnQtZmFtaWx5PSJzYW5zLXNlcmlmIiBmb250LXNpemU9IjE0IiBsZW5ndGhBZGp1c3Q9InNwYWNpbmciIHRleHRMZW5ndGg9Ijg1IiB4PSIyMjguNSIgeT0iOTMuNzE4OCI+bmFtZTogU3RyaW5nPC90ZXh0PjxyZWN0IGZpbGw9Im5vbmUiIGhlaWdodD0iNiIgc3R5bGU9InN0cm9rZTojQzgyOTMwO3N0cm9rZS13aWR0aDoxLjA7IiB3aWR0aD0iNiIgeD0iMjE2LjUiIHk9IjEwMS40NjA5Ii8+PHRleHQgZmlsbD0iIzAwMDAwMCIgZm9udC1mYW1pbHk9InNhbnMtc2VyaWYiIGZvbnQtc2l6ZT0iMTQiIGxlbmd0aEFkanVzdD0ic3BhY2luZyIgdGV4dExlbmd0aD0iMjEiIHg9IjIyOC41IiB5PSIxMDguNzAzMSI+Li4uPC90ZXh0PjxsaW5lIHN0eWxlPSJzdHJva2U6IzE4MTgxODtzdHJva2Utd2lkdGg6MC41OyIgeDE9IjIwOS41IiB4Mj0iMzE4LjUiIHkxPSIxMTQuNDUzMSIgeTI9IjExNC40NTMxIi8+PC9nPjwhLS1jbGFzcyBUYXNrLS0+PGcgaWQ9ImVsZW1fVGFzayI+PHJlY3QgY29kZUxpbmU9IjciIGZpbGw9IiNGMUYxRjEiIGhlaWdodD0iMTM3LjkwNjMiIGlkPSJUYXNrIiByeD0iMi41IiByeT0iMi41IiBzdHlsZT0ic3Ryb2tlOiMxODE4MTg7c3Ryb2tlLXdpZHRoOjAuNTsiIHdpZHRoPSIxNjYiIHg9IjciIHk9IjciLz48ZWxsaXBzZSBjeD0iNzEuNzUiIGN5PSIyMyIgZmlsbD0iI0FERDFCMiIgcng9IjExIiByeT0iMTEiIHN0eWxlPSJzdHJva2U6IzE4MTgxODtzdHJva2Utd2lkdGg6MS4wOyIvPjxwYXRoIGQ9Ik02OS4zNzUsMjcuMjUgTDY5LjM3NSwyOSBMNzQuMzEyNSwyOSBMNzQuMzEyNSwyNy4yNSBMNjkuMzc1LDI3LjI1IFogTTcwLjA2MjUsMjcuOTM3NSBRNzAuMDYyNSwyNy45Mzc1IDcwLjA2MjUsMTguNzUgTDY4LjMxMjUsMTguNzUgUTY4LjMxMjUsMTguNzUgNjguMzEyNSwyNy45Mzc1IEw3MC4wNjI1LDI3LjkzNzUgWiBNNzMuNjI1LDI3LjkzNzUgTDc1LjM3NSwyNy45Mzc1IFE3NS4zNzUsMjcuOTM3NSA3NS4zNzUsMjUuMTI1IEw3My42MjUsMjUuMTI1IFE3My42MjUsMjUuMTI1IDczLjYyNSwyNy45Mzc1IFogTTczLjYyNSwxOC43NSBRNzMuNjI1LDE4Ljc1IDczLjYyNSwyMS41NjI1IEw3NS4zNzUsMjEuNTYyNSBRNzUuMzc1LDIxLjU2MjUgNzUuMzc1LDE4Ljc1IEw3My42MjUsMTguNzUgWiBNNjkuMzc1LDE5LjQzNzUgTDc0LjMxMjUsMTkuNDM3NSBMNzQuMzEyNSwxNy42ODc1IEw2OS4zNzUsMTcuNjg3NSBMNjkuMzc1LDE5LjQzNzUgWiAiIGZpbGw9IiMwMDAwMDAiLz48dGV4dCBmaWxsPSIjMDAwMDAwIiBmb250LWZhbWlseT0ic2Fucy1zZXJpZiIgZm9udC1zaXplPSIxNCIgbGVuZ3RoQWRqdXN0PSJzcGFjaW5nIiB0ZXh0TGVuZ3RoPSIyOCIgeD0iOTIuMjUiIHk9IjI4Ljc0MjIiPlRhc2s8L3RleHQ+PGxpbmUgc3R5bGU9InN0cm9rZTojMTgxODE4O3N0cm9rZS13aWR0aDowLjU7IiB4MT0iOCIgeDI9IjE3MiIgeTE9IjM5IiB5Mj0iMzkiLz48cmVjdCBmaWxsPSJub25lIiBoZWlnaHQ9IjYiIHN0eWxlPSJzdHJva2U6I0M4MjkzMDtzdHJva2Utd2lkdGg6MS4wOyIgd2lkdGg9IjYiIHg9IjE1IiB5PSI0OC45OTIyIi8+PHRleHQgZmlsbD0iIzAwMDAwMCIgZm9udC1mYW1pbHk9InNhbnMtc2VyaWYiIGZvbnQtc2l6ZT0iMTQiIGxlbmd0aEFkanVzdD0ic3BhY2luZyIgdGV4dExlbmd0aD0iNDkiIHg9IjI3IiB5PSI1Ni4yMzQ0Ij5pZDogaW50PC90ZXh0PjxyZWN0IGZpbGw9Im5vbmUiIGhlaWdodD0iNiIgc3R5bGU9InN0cm9rZTojQzgyOTMwO3N0cm9rZS13aWR0aDoxLjA7IiB3aWR0aD0iNiIgeD0iMTUiIHk9IjYzLjk3NjYiLz48dGV4dCBmaWxsPSIjMDAwMDAwIiBmb250LWZhbWlseT0ic2Fucy1zZXJpZiIgZm9udC1zaXplPSIxNCIgbGVuZ3RoQWRqdXN0PSJzcGFjaW5nIiB0ZXh0TGVuZ3RoPSI4NSIgeD0iMjciIHk9IjcxLjIxODgiPm5hbWU6IFN0cmluZzwvdGV4dD48cmVjdCBmaWxsPSJub25lIiBoZWlnaHQ9IjYiIHN0eWxlPSJzdHJva2U6I0M4MjkzMDtzdHJva2Utd2lkdGg6MS4wOyIgd2lkdGg9IjYiIHg9IjE1IiB5PSI3OC45NjA5Ii8+PHRleHQgZmlsbD0iIzAwMDAwMCIgZm9udC1mYW1pbHk9InNhbnMtc2VyaWYiIGZvbnQtc2l6ZT0iMTQiIGxlbmd0aEFkanVzdD0ic3BhY2luZyIgdGV4dExlbmd0aD0iMTMzIiB4PSIyNyIgeT0iODYuMjAzMSI+ZGVzY3JpcHRpb246IFN0cmluZzwvdGV4dD48cmVjdCBmaWxsPSJub25lIiBoZWlnaHQ9IjYiIHN0eWxlPSJzdHJva2U6I0M4MjkzMDtzdHJva2Utd2lkdGg6MS4wOyIgd2lkdGg9IjYiIHg9IjE1IiB5PSI5My45NDUzIi8+PHRleHQgZmlsbD0iIzAwMDAwMCIgZm9udC1mYW1pbHk9InNhbnMtc2VyaWYiIGZvbnQtc2l6ZT0iMTQiIGxlbmd0aEFkanVzdD0ic3BhY2luZyIgdGV4dExlbmd0aD0iOTgiIHg9IjI3IiB5PSIxMDEuMTg3NSI+c3RhdHVzOiBTdHJpbmc8L3RleHQ+PHJlY3QgZmlsbD0ibm9uZSIgaGVpZ2h0PSI2IiBzdHlsZT0ic3Ryb2tlOiNDODI5MzA7c3Ryb2tlLXdpZHRoOjEuMDsiIHdpZHRoPSI2IiB4PSIxNSIgeT0iMTA4LjkyOTciLz48dGV4dCBmaWxsPSIjMDAwMDAwIiBmb250LWZhbWlseT0ic2Fucy1zZXJpZiIgZm9udC1zaXplPSIxNCIgbGVuZ3RoQWRqdXN0PSJzcGFjaW5nIiB0ZXh0TGVuZ3RoPSIxNDAiIHg9IjI3IiB5PSIxMTYuMTcxOSI+dm9sdW50ZWVyOiBWb2x1bnRlZXI8L3RleHQ+PHJlY3QgZmlsbD0ibm9uZSIgaGVpZ2h0PSI2IiBzdHlsZT0ic3Ryb2tlOiNDODI5MzA7c3Ryb2tlLXdpZHRoOjEuMDsiIHdpZHRoPSI2IiB4PSIxNSIgeT0iMTIzLjkxNDEiLz48dGV4dCBmaWxsPSIjMDAwMDAwIiBmb250LWZhbWlseT0ic2Fucy1zZXJpZiIgZm9udC1zaXplPSIxNCIgbGVuZ3RoQWRqdXN0PSJzcGFjaW5nIiB0ZXh0TGVuZ3RoPSIyMSIgeD0iMjciIHk9IjEzMS4xNTYzIj4uLi48L3RleHQ+PGxpbmUgc3R5bGU9InN0cm9rZTojMTgxODE4O3N0cm9rZS13aWR0aDowLjU7IiB4MT0iOCIgeDI9IjE3MiIgeTE9IjEzNi45MDYzIiB5Mj0iMTM2LjkwNjMiLz48L2c+PCEtLWNsYXNzIFJlY29yZC0tPjxnIGlkPSJlbGVtX1JlY29yZCI+PHJlY3QgY29kZUxpbmU9IjE2IiBmaWxsPSIjRjFGMUYxIiBoZWlnaHQ9IjEyMi45MjE5IiBpZD0iUmVjb3JkIiByeD0iMi41IiByeT0iMi41IiBzdHlsZT0ic3Ryb2tlOiMxODE4MTg7c3Ryb2tlLXdpZHRoOjAuNTsiIHdpZHRoPSIxMzkiIHg9IjM1NC41IiB5PSIxNC41Ii8+PGVsbGlwc2UgY3g9IjM5OC43NSIgY3k9IjMwLjUiIGZpbGw9IiNBREQxQjIiIHJ4PSIxMSIgcnk9IjExIiBzdHlsZT0ic3Ryb2tlOiMxODE4MTg7c3Ryb2tlLXdpZHRoOjEuMDsiLz48cGF0aCBkPSJNMzk2LjM3NSwzNC43NSBMMzk2LjM3NSwzNi41IEw0MDEuMzEyNSwzNi41IEw0MDEuMzEyNSwzNC43NSBMMzk2LjM3NSwzNC43NSBaIE0zOTcuMDYyNSwzNS40Mzc1IFEzOTcuMDYyNSwzNS40Mzc1IDM5Ny4wNjI1LDI2LjI1IEwzOTUuMzEyNSwyNi4yNSBRMzk1LjMxMjUsMjYuMjUgMzk1LjMxMjUsMzUuNDM3NSBMMzk3LjA2MjUsMzUuNDM3NSBaIE00MDAuNjI1LDM1LjQzNzUgTDQwMi4zNzUsMzUuNDM3NSBRNDAyLjM3NSwzNS40Mzc1IDQwMi4zNzUsMzIuNjI1IEw0MDAuNjI1LDMyLjYyNSBRNDAwLjYyNSwzMi42MjUgNDAwLjYyNSwzNS40Mzc1IFogTTQwMC42MjUsMjYuMjUgUTQwMC42MjUsMjYuMjUgNDAwLjYyNSwyOS4wNjI1IEw0MDIuMzc1LDI5LjA2MjUgUTQwMi4zNzUsMjkuMDYyNSA0MDIuMzc1LDI2LjI1IEw0MDAuNjI1LDI2LjI1IFogTTM5Ni4zNzUsMjYuOTM3NSBMNDAxLjMxMjUsMjYuOTM3NSBMNDAxLjMxMjUsMjUuMTg3NSBMMzk2LjM3NSwyNS4xODc1IEwzOTYuMzc1LDI2LjkzNzUgWiAiIGZpbGw9IiMwMDAwMDAiLz48dGV4dCBmaWxsPSIjMDAwMDAwIiBmb250LWZhbWlseT0ic2Fucy1zZXJpZiIgZm9udC1zaXplPSIxNCIgbGVuZ3RoQWRqdXN0PSJzcGFjaW5nIiB0ZXh0TGVuZ3RoPSI0MiIgeD0iNDE5LjI1IiB5PSIzNi4yNDIyIj5SZWNvcmQ8L3RleHQ+PGxpbmUgc3R5bGU9InN0cm9rZTojMTgxODE4O3N0cm9rZS13aWR0aDowLjU7IiB4MT0iMzU1LjUiIHgyPSI0OTIuNSIgeTE9IjQ2LjUiIHkyPSI0Ni41Ii8+PHJlY3QgZmlsbD0ibm9uZSIgaGVpZ2h0PSI2IiBzdHlsZT0ic3Ryb2tlOiNDODI5MzA7c3Ryb2tlLXdpZHRoOjEuMDsiIHdpZHRoPSI2IiB4PSIzNjIuNSIgeT0iNTYuNDkyMiIvPjx0ZXh0IGZpbGw9IiMwMDAwMDAiIGZvbnQtZmFtaWx5PSJzYW5zLXNlcmlmIiBmb250LXNpemU9IjE0IiBsZW5ndGhBZGp1c3Q9InNwYWNpbmciIHRleHRMZW5ndGg9IjQ5IiB4PSIzNzQuNSIgeT0iNjMuNzM0NCI+aWQ6IGludDwvdGV4dD48cmVjdCBmaWxsPSJub25lIiBoZWlnaHQ9IjYiIHN0eWxlPSJzdHJva2U6I0M4MjkzMDtzdHJva2Utd2lkdGg6MS4wOyIgd2lkdGg9IjYiIHg9IjM2Mi41IiB5PSI3MS40NzY2Ii8+PHRleHQgZmlsbD0iIzAwMDAwMCIgZm9udC1mYW1pbHk9InNhbnMtc2VyaWYiIGZvbnQtc2l6ZT0iMTQiIGxlbmd0aEFkanVzdD0ic3BhY2luZyIgdGV4dExlbmd0aD0iMTEzIiB4PSIzNzQuNSIgeT0iNzguNzE4OCI+ZmlsZW5hbWU6IFN0cmluZzwvdGV4dD48cmVjdCBmaWxsPSJub25lIiBoZWlnaHQ9IjYiIHN0eWxlPSJzdHJva2U6I0M4MjkzMDtzdHJva2Utd2lkdGg6MS4wOyIgd2lkdGg9IjYiIHg9IjM2Mi41IiB5PSI4Ni40NjA5Ii8+PHRleHQgZmlsbD0iIzAwMDAwMCIgZm9udC1mYW1pbHk9InNhbnMtc2VyaWYiIGZvbnQtc2l6ZT0iMTQiIGxlbmd0aEFkanVzdD0ic3BhY2luZyIgdGV4dExlbmd0aD0iMTEzIiB4PSIzNzQuNSIgeT0iOTMuNzAzMSI+dXBsb2FkVGltZTogRGF0ZTwvdGV4dD48cmVjdCBmaWxsPSJub25lIiBoZWlnaHQ9IjYiIHN0eWxlPSJzdHJva2U6I0M4MjkzMDtzdHJva2Utd2lkdGg6MS4wOyIgd2lkdGg9IjYiIHg9IjM2Mi41IiB5PSIxMDEuNDQ1MyIvPjx0ZXh0IGZpbGw9IiMwMDAwMDAiIGZvbnQtZmFtaWx5PSJzYW5zLXNlcmlmIiBmb250LXNpemU9IjE0IiBsZW5ndGhBZGp1c3Q9InNwYWNpbmciIHRleHRMZW5ndGg9IjU2IiB4PSIzNzQuNSIgeT0iMTA4LjY4NzUiPmNhdDogQ2F0PC90ZXh0PjxyZWN0IGZpbGw9Im5vbmUiIGhlaWdodD0iNiIgc3R5bGU9InN0cm9rZTojQzgyOTMwO3N0cm9rZS13aWR0aDoxLjA7IiB3aWR0aD0iNiIgeD0iMzYyLjUiIHk9IjExNi40Mjk3Ii8+PHRleHQgZmlsbD0iIzAwMDAwMCIgZm9udC1mYW1pbHk9InNhbnMtc2VyaWYiIGZvbnQtc2l6ZT0iMTQiIGxlbmd0aEFkanVzdD0ic3BhY2luZyIgdGV4dExlbmd0aD0iMjEiIHg9IjM3NC41IiB5PSIxMjMuNjcxOSI+Li4uPC90ZXh0PjxsaW5lIHN0eWxlPSJzdHJva2U6IzE4MTgxODtzdHJva2Utd2lkdGg6MC41OyIgeDE9IjM1NS41IiB4Mj0iNDkyLjUiIHkxPSIxMjkuNDIxOSIgeTI9IjEyOS40MjE5Ii8+PC9nPjwhLS1jbGFzcyBWb2x1bnRlZXJTZXJ2aWNlLS0+PGcgaWQ9ImVsZW1fVm9sdW50ZWVyU2VydmljZSI+PHJlY3QgY29kZUxpbmU9IjI0IiBmaWxsPSIjRjFGMUYxIiBoZWlnaHQ9IjkyLjk1MzEiIGlkPSJWb2x1bnRlZXJTZXJ2aWNlIiByeD0iMi41IiByeT0iMi41IiBzdHlsZT0ic3Ryb2tlOiMxODE4MTg7c3Ryb2tlLXdpZHRoOjAuNTsiIHdpZHRoPSIzNDMiIHg9IjUyNy41IiB5PSIyMTIuNSIvPjxlbGxpcHNlIGN4PSI2MzguNzUiIGN5PSIyMjguNSIgZmlsbD0iI0I0QTdFNSIgcng9IjExIiByeT0iMTEiIHN0eWxlPSJzdHJva2U6IzE4MTgxODtzdHJva2Utd2lkdGg6MS4wOyIvPjxwYXRoIGQ9Ik02NDEuODc1LDIzNC41IEw2NDEuODc1LDIzMi43NSBMNjM5Ljc1LDIzMi43NSBRNjM5Ljc1LDIzMi43NSA2MzkuNzUsMjI0LjkzNzUgTDY0MS44NzUsMjI0LjkzNzUgTDY0MS44NzUsMjIzLjE4NzUgTDYzNS44NzUsMjIzLjE4NzUgTDYzNS44NzUsMjI0LjkzNzUgTDYzOCwyMjQuOTM3NSBRNjM4LDIyNC45Mzc1IDYzOCwyMzIuNzUgTDYzNS44NzUsMjMyLjc1IEw2MzUuODc1LDIzNC41IEw2NDEuODc1LDIzNC41IFogIiBmaWxsPSIjMDAwMDAwIi8+PHRleHQgZmlsbD0iIzAwMDAwMCIgZm9udC1mYW1pbHk9InNhbnMtc2VyaWYiIGZvbnQtc2l6ZT0iMTQiIGZvbnQtc3R5bGU9Iml0YWxpYyIgbGVuZ3RoQWRqdXN0PSJzcGFjaW5nIiB0ZXh0TGVuZ3RoPSIxMTIiIHg9IjY1OS4yNSIgeT0iMjM0LjI0MjIiPlZvbHVudGVlclNlcnZpY2U8L3RleHQ+PGxpbmUgc3R5bGU9InN0cm9rZTojMTgxODE4O3N0cm9rZS13aWR0aDowLjU7IiB4MT0iNTI4LjUiIHgyPSI4NjkuNSIgeTE9IjI0NC41IiB5Mj0iMjQ0LjUiLz48bGluZSBzdHlsZT0ic3Ryb2tlOiMxODE4MTg7c3Ryb2tlLXdpZHRoOjAuNTsiIHgxPSI1MjguNSIgeDI9Ijg2OS41IiB5MT0iMjUyLjUiIHkyPSIyNTIuNSIvPjxlbGxpcHNlIGN4PSI1MzguNSIgY3k9IjI2NS40OTIyIiBmaWxsPSIjODRCRTg0IiByeD0iMyIgcnk9IjMiIHN0eWxlPSJzdHJva2U6IzAzODA0ODtzdHJva2Utd2lkdGg6MS4wOyIvPjx0ZXh0IGZpbGw9IiMwMDAwMDAiIGZvbnQtZmFtaWx5PSJzYW5zLXNlcmlmIiBmb250LXNpemU9IjE0IiBsZW5ndGhBZGp1c3Q9InNwYWNpbmciIHRleHRMZW5ndGg9IjI0NyIgeD0iNTQ3LjUiIHk9IjI2OS43MzQ0Ij5hcHBseVZvbHVudGVlcih2b2x1bnRlZXJJbmZvKTogdm9pZDwvdGV4dD48ZWxsaXBzZSBjeD0iNTM4LjUiIGN5PSIyODAuNDc2NiIgZmlsbD0iIzg0QkU4NCIgcng9IjMiIHJ5PSIzIiBzdHlsZT0ic3Ryb2tlOiMwMzgwNDg7c3Ryb2tlLXdpZHRoOjEuMDsiLz48dGV4dCBmaWxsPSIjMDAwMDAwIiBmb250LWZhbWlseT0ic2Fucy1zZXJpZiIgZm9udC1zaXplPSIxNCIgbGVuZ3RoQWRqdXN0PSJzcGFjaW5nIiB0ZXh0TGVuZ3RoPSIzMTciIHg9IjU0Ny41IiB5PSIyODQuNzE4OCI+YXBwcm92ZVZvbHVudGVlcih2b2x1bnRlZXJJZCwgZGVjaXNpb24pOiB2b2lkPC90ZXh0PjxlbGxpcHNlIGN4PSI1MzguNSIgY3k9IjI5NS40NjA5IiBmaWxsPSIjODRCRTg0IiByeD0iMyIgcnk9IjMiIHN0eWxlPSJzdHJva2U6IzAzODA0ODtzdHJva2Utd2lkdGg6MS4wOyIvPjx0ZXh0IGZpbGw9IiMwMDAwMDAiIGZvbnQtZmFtaWx5PSJzYW5zLXNlcmlmIiBmb250LXNpemU9IjE0IiBsZW5ndGhBZGp1c3Q9InNwYWNpbmciIHRleHRMZW5ndGg9IjI0NyIgeD0iNTQ3LjUiIHk9IjI5OS43MDMxIj5nZXRWb2x1bnRlZXJMaXN0KCk6IExpc3QmbHQ7Vm9sdW50ZWVyJmd0OzwvdGV4dD48L2c+PCEtLWNsYXNzIFZvbHVudGVlclNlcnZpY2VJbXBsLS0+PGcgaWQ9ImVsZW1fVm9sdW50ZWVyU2VydmljZUltcGwiPjxyZWN0IGNvZGVMaW5lPSIzMCIgZmlsbD0iI0YxRjFGMSIgaGVpZ2h0PSI3Ny45Njg4IiBpZD0iVm9sdW50ZWVyU2VydmljZUltcGwiIHJ4PSIyLjUiIHJ5PSIyLjUiIHN0eWxlPSJzdHJva2U6IzE4MTgxODtzdHJva2Utd2lkdGg6MC41OyIgd2lkdGg9IjMwNiIgeD0iMjc1IiB5PSIzODAuNSIvPjxlbGxpcHNlIGN4PSIzNTMuMjUiIGN5PSIzOTYuNSIgZmlsbD0iI0FERDFCMiIgcng9IjExIiByeT0iMTEiIHN0eWxlPSJzdHJva2U6IzE4MTgxODtzdHJva2Utd2lkdGg6MS4wOyIvPjxwYXRoIGQ9Ik0zNTAuODc1LDQwMC43NSBMMzUwLjg3NSw0MDIuNSBMMzU1LjgxMjUsNDAyLjUgTDM1NS44MTI1LDQwMC43NSBMMzUwLjg3NSw0MDAuNzUgWiBNMzUxLjU2MjUsNDAxLjQzNzUgUTM1MS41NjI1LDQwMS40Mzc1IDM1MS41NjI1LDM5Mi4yNSBMMzQ5LjgxMjUsMzkyLjI1IFEzNDkuODEyNSwzOTIuMjUgMzQ5LjgxMjUsNDAxLjQzNzUgTDM1MS41NjI1LDQwMS40Mzc1IFogTTM1NS4xMjUsNDAxLjQzNzUgTDM1Ni44NzUsNDAxLjQzNzUgUTM1Ni44NzUsNDAxLjQzNzUgMzU2Ljg3NSwzOTguNjI1IEwzNTUuMTI1LDM5OC42MjUgUTM1NS4xMjUsMzk4LjYyNSAzNTUuMTI1LDQwMS40Mzc1IFogTTM1NS4xMjUsMzkyLjI1IFEzNTUuMTI1LDM5Mi4yNSAzNTUuMTI1LDM5NS4wNjI1IEwzNTYuODc1LDM5NS4wNjI1IFEzNTYuODc1LDM5NS4wNjI1IDM1Ni44NzUsMzkyLjI1IEwzNTUuMTI1LDM5Mi4yNSBaIE0zNTAuODc1LDM5Mi45Mzc1IEwzNTUuODEyNSwzOTIuOTM3NSBMMzU1LjgxMjUsMzkxLjE4NzUgTDM1MC44NzUsMzkxLjE4NzUgTDM1MC44NzUsMzkyLjkzNzUgWiAiIGZpbGw9IiMwMDAwMDAiLz48dGV4dCBmaWxsPSIjMDAwMDAwIiBmb250LWZhbWlseT0ic2Fucy1zZXJpZiIgZm9udC1zaXplPSIxNCIgbGVuZ3RoQWRqdXN0PSJzcGFjaW5nIiB0ZXh0TGVuZ3RoPSIxNDEiIHg9IjM3My43NSIgeT0iNDAyLjI0MjIiPlZvbHVudGVlclNlcnZpY2VJbXBsPC90ZXh0PjxsaW5lIHN0eWxlPSJzdHJva2U6IzE4MTgxODtzdHJva2Utd2lkdGg6MC41OyIgeDE9IjI3NiIgeDI9IjU4MCIgeTE9IjQxMi41IiB5Mj0iNDEyLjUiLz48cmVjdCBmaWxsPSJub25lIiBoZWlnaHQ9IjYiIHN0eWxlPSJzdHJva2U6I0M4MjkzMDtzdHJva2Utd2lkdGg6MS4wOyIgd2lkdGg9IjYiIHg9IjI4MyIgeT0iNDIyLjQ5MjIiLz48dGV4dCBmaWxsPSIjMDAwMDAwIiBmb250LWZhbWlseT0ic2Fucy1zZXJpZiIgZm9udC1zaXplPSIxNCIgbGVuZ3RoQWRqdXN0PSJzcGFjaW5nIiB0ZXh0TGVuZ3RoPSIyODAiIHg9IjI5NSIgeT0iNDI5LjczNDQiPnZvbHVudGVlclJlcG9zaXRvcnk6IFZvbHVudGVlclJlcG9zaXRvcnk8L3RleHQ+PHRleHQgZmlsbD0iIzAwMDAwMCIgZm9udC1mYW1pbHk9InNhbnMtc2VyaWYiIGZvbnQtc2l6ZT0iMTQiIGxlbmd0aEFkanVzdD0ic3BhY2luZyIgdGV4dExlbmd0aD0iMjEiIHg9IjI5NSIgeT0iNDQ0LjcxODgiPi4uLjwvdGV4dD48bGluZSBzdHlsZT0ic3Ryb2tlOiMxODE4MTg7c3Ryb2tlLXdpZHRoOjAuNTsiIHgxPSIyNzYiIHgyPSI1ODAiIHkxPSI0NTAuNDY4OCIgeTI9IjQ1MC40Njg4Ii8+PC9nPjwhLS1jbGFzcyBWb2x1bnRlZXJSZXBvc2l0b3J5LS0+PGcgaWQ9ImVsZW1fVm9sdW50ZWVyUmVwb3NpdG9yeSI+PHJlY3QgY29kZUxpbmU9IjM1IiBmaWxsPSIjRjFGMUYxIiBoZWlnaHQ9IjkyLjk1MzEiIGlkPSJWb2x1bnRlZXJSZXBvc2l0b3J5IiByeD0iMi41IiByeT0iMi41IiBzdHlsZT0ic3Ryb2tlOiMxODE4MTg7c3Ryb2tlLXdpZHRoOjAuNTsiIHdpZHRoPSIzNjQiIHg9IjYxNiIgeT0iMzczIi8+PGVsbGlwc2UgY3g9IjcyNy4yNSIgY3k9IjM4OSIgZmlsbD0iI0I0QTdFNSIgcng9IjExIiByeT0iMTEiIHN0eWxlPSJzdHJva2U6IzE4MTgxODtzdHJva2Utd2lkdGg6MS4wOyIvPjxwYXRoIGQ9Ik03MzAuMzc1LDM5NSBMNzMwLjM3NSwzOTMuMjUgTDcyOC4yNSwzOTMuMjUgUTcyOC4yNSwzOTMuMjUgNzI4LjI1LDM4NS40Mzc1IEw3MzAuMzc1LDM4NS40Mzc1IEw3MzAuMzc1LDM4My42ODc1IEw3MjQuMzc1LDM4My42ODc1IEw3MjQuMzc1LDM4NS40Mzc1IEw3MjYuNSwzODUuNDM3NSBRNzI2LjUsMzg1LjQzNzUgNzI2LjUsMzkzLjI1IEw3MjQuMzc1LDM5My4yNSBMNzI0LjM3NSwzOTUgTDczMC4zNzUsMzk1IFogIiBmaWxsPSIjMDAwMDAwIi8+PHRleHQgZmlsbD0iIzAwMDAwMCIgZm9udC1mYW1pbHk9InNhbnMtc2VyaWYiIGZvbnQtc2l6ZT0iMTQiIGZvbnQtc3R5bGU9Iml0YWxpYyIgbGVuZ3RoQWRqdXN0PSJzcGFjaW5nIiB0ZXh0TGVuZ3RoPSIxMzMiIHg9Ijc0Ny43NSIgeT0iMzk0Ljc0MjIiPlZvbHVudGVlclJlcG9zaXRvcnk8L3RleHQ+PGxpbmUgc3R5bGU9InN0cm9rZTojMTgxODE4O3N0cm9rZS13aWR0aDowLjU7IiB4MT0iNjE3IiB4Mj0iOTc5IiB5MT0iNDA1IiB5Mj0iNDA1Ii8+PGxpbmUgc3R5bGU9InN0cm9rZTojMTgxODE4O3N0cm9rZS13aWR0aDowLjU7IiB4MT0iNjE3IiB4Mj0iOTc5IiB5MT0iNDEzIiB5Mj0iNDEzIi8+PGVsbGlwc2UgY3g9IjYyNyIgY3k9IjQyNS45OTIyIiBmaWxsPSIjODRCRTg0IiByeD0iMyIgcnk9IjMiIHN0eWxlPSJzdHJva2U6IzAzODA0ODtzdHJva2Utd2lkdGg6MS4wOyIvPjx0ZXh0IGZpbGw9IiMwMDAwMDAiIGZvbnQtZmFtaWx5PSJzYW5zLXNlcmlmIiBmb250LXNpemU9IjE0IiBsZW5ndGhBZGp1c3Q9InNwYWNpbmciIHRleHRMZW5ndGg9IjI0MCIgeD0iNjM2IiB5PSI0MzAuMjM0NCI+c2F2ZVZvbHVudGVlcih2b2x1bnRlZXJJbmZvKTogdm9pZDwvdGV4dD48ZWxsaXBzZSBjeD0iNjI3IiBjeT0iNDQwLjk3NjYiIGZpbGw9IiM4NEJFODQiIHJ4PSIzIiByeT0iMyIgc3R5bGU9InN0cm9rZTojMDM4MDQ4O3N0cm9rZS13aWR0aDoxLjA7Ii8+PHRleHQgZmlsbD0iIzAwMDAwMCIgZm9udC1mYW1pbHk9InNhbnMtc2VyaWYiIGZvbnQtc2l6ZT0iMTQiIGxlbmd0aEFkanVzdD0ic3BhY2luZyIgdGV4dExlbmd0aD0iMzM4IiB4PSI2MzYiIHk9IjQ0NS4yMTg4Ij51cGRhdGVWb2x1bnRlZXJTdGF0dXModm9sdW50ZWVySWQsIHN0YXR1cyk6IHZvaWQ8L3RleHQ+PGVsbGlwc2UgY3g9IjYyNyIgY3k9IjQ1NS45NjA5IiBmaWxsPSIjODRCRTg0IiByeD0iMyIgcnk9IjMiIHN0eWxlPSJzdHJva2U6IzAzODA0ODtzdHJva2Utd2lkdGg6MS4wOyIvPjx0ZXh0IGZpbGw9IiMwMDAwMDAiIGZvbnQtZmFtaWx5PSJzYW5zLXNlcmlmIiBmb250LXNpemU9IjE0IiBsZW5ndGhBZGp1c3Q9InNwYWNpbmciIHRleHRMZW5ndGg9IjI1NCIgeD0iNjM2IiB5PSI0NjAuMjAzMSI+ZmluZEFsbFZvbHVudGVlcnMoKTogTGlzdCZsdDtWb2x1bnRlZXImZ3Q7PC90ZXh0PjwvZz48IS0tY2xhc3MgVm9sdW50ZWVyUmVwb3NpdG9yeUltcGwtLT48ZyBpZD0iZWxlbV9Wb2x1bnRlZXJSZXBvc2l0b3J5SW1wbCI+PHJlY3QgY29kZUxpbmU9IjQxIiBmaWxsPSIjRjFGMUYxIiBoZWlnaHQ9IjYyLjk4NDQiIGlkPSJWb2x1bnRlZXJSZXBvc2l0b3J5SW1wbCIgcng9IjIuNSIgcnk9IjIuNSIgc3R5bGU9InN0cm9rZTojMTgxODE4O3N0cm9rZS13aWR0aDowLjU7IiB3aWR0aD0iMTk0IiB4PSI3MDEiIHk9IjUyNiIvPjxlbGxpcHNlIGN4PSI3MTYiIGN5PSI1NDIiIGZpbGw9IiNBREQxQjIiIHJ4PSIxMSIgcnk9IjExIiBzdHlsZT0ic3Ryb2tlOiMxODE4MTg7c3Ryb2tlLXdpZHRoOjEuMDsiLz48cGF0aCBkPSJNNzEzLjYyNSw1NDYuMjUgTDcxMy42MjUsNTQ4IEw3MTguNTYyNSw1NDggTDcxOC41NjI1LDU0Ni4yNSBMNzEzLjYyNSw1NDYuMjUgWiBNNzE0LjMxMjUsNTQ2LjkzNzUgUTcxNC4zMTI1LDU0Ni45Mzc1IDcxNC4zMTI1LDUzNy43NSBMNzEyLjU2MjUsNTM3Ljc1IFE3MTIuNTYyNSw1MzcuNzUgNzEyLjU2MjUsNTQ2LjkzNzUgTDcxNC4zMTI1LDU0Ni45Mzc1IFogTTcxNy44NzUsNTQ2LjkzNzUgTDcxOS42MjUsNTQ2LjkzNzUgUTcxOS42MjUsNTQ2LjkzNzUgNzE5LjYyNSw1NDQuMTI1IEw3MTcuODc1LDU0NC4xMjUgUTcxNy44NzUsNTQ0LjEyNSA3MTcuODc1LDU0Ni45Mzc1IFogTTcxNy44NzUsNTM3Ljc1IFE3MTcuODc1LDUzNy43NSA3MTcuODc1LDU0MC41NjI1IEw3MTkuNjI1LDU0MC41NjI1IFE3MTkuNjI1LDU0MC41NjI1IDcxOS42MjUsNTM3Ljc1IEw3MTcuODc1LDUzNy43NSBaIE03MTMuNjI1LDUzOC40Mzc1IEw3MTguNTYyNSw1MzguNDM3NSBMNzE4LjU2MjUsNTM2LjY4NzUgTDcxMy42MjUsNTM2LjY4NzUgTDcxMy42MjUsNTM4LjQzNzUgWiAiIGZpbGw9IiMwMDAwMDAiLz48dGV4dCBmaWxsPSIjMDAwMDAwIiBmb250LWZhbWlseT0ic2Fucy1zZXJpZiIgZm9udC1zaXplPSIxNCIgbGVuZ3RoQWRqdXN0PSJzcGFjaW5nIiB0ZXh0TGVuZ3RoPSIxNjIiIHg9IjczMCIgeT0iNTQ3Ljc0MjIiPlZvbHVudGVlclJlcG9zaXRvcnlJbXBsPC90ZXh0PjxsaW5lIHN0eWxlPSJzdHJva2U6IzE4MTgxODtzdHJva2Utd2lkdGg6MC41OyIgeDE9IjcwMiIgeDI9Ijg5NCIgeTE9IjU1OCIgeTI9IjU1OCIvPjx0ZXh0IGZpbGw9IiMwMDAwMDAiIGZvbnQtZmFtaWx5PSJzYW5zLXNlcmlmIiBmb250LXNpemU9IjE0IiBsZW5ndGhBZGp1c3Q9InNwYWNpbmciIHRleHRMZW5ndGg9IjIxIiB4PSI3MDciIHk9IjU3NS4yMzQ0Ij4uLi48L3RleHQ+PGxpbmUgc3R5bGU9InN0cm9rZTojMTgxODE4O3N0cm9rZS13aWR0aDowLjU7IiB4MT0iNzAyIiB4Mj0iODk0IiB5MT0iNTgwLjk4NDQiIHkyPSI1ODAuOTg0NCIvPjwvZz48IS0tY2xhc3MgVGFza1NlcnZpY2UtLT48ZyBpZD0iZWxlbV9UYXNrU2VydmljZSI+PHJlY3QgY29kZUxpbmU9IjQ1IiBmaWxsPSIjRjFGMUYxIiBoZWlnaHQ9IjEwNy45Mzc1IiBpZD0iVGFza1NlcnZpY2UiIHJ4PSIyLjUiIHJ5PSIyLjUiIHN0eWxlPSJzdHJva2U6IzE4MTgxODtzdHJva2Utd2lkdGg6MC41OyIgd2lkdGg9IjM1MCIgeD0iMTA3OSIgeT0iMjA1Ii8+PGVsbGlwc2UgY3g9IjEyMTEuMjUiIGN5PSIyMjEiIGZpbGw9IiNCNEE3RTUiIHJ4PSIxMSIgcnk9IjExIiBzdHlsZT0ic3Ryb2tlOiMxODE4MTg7c3Ryb2tlLXdpZHRoOjEuMDsiLz48cGF0aCBkPSJNMTIxNC4zNzUsMjI3IEwxMjE0LjM3NSwyMjUuMjUgTDEyMTIuMjUsMjI1LjI1IFExMjEyLjI1LDIyNS4yNSAxMjEyLjI1LDIxNy40Mzc1IEwxMjE0LjM3NSwyMTcuNDM3NSBMMTIxNC4zNzUsMjE1LjY4NzUgTDEyMDguMzc1LDIxNS42ODc1IEwxMjA4LjM3NSwyMTcuNDM3NSBMMTIxMC41LDIxNy40Mzc1IFExMjEwLjUsMjE3LjQzNzUgMTIxMC41LDIyNS4yNSBMMTIwOC4zNzUsMjI1LjI1IEwxMjA4LjM3NSwyMjcgTDEyMTQuMzc1LDIyNyBaICIgZmlsbD0iIzAwMDAwMCIvPjx0ZXh0IGZpbGw9IiMwMDAwMDAiIGZvbnQtZmFtaWx5PSJzYW5zLXNlcmlmIiBmb250LXNpemU9IjE0IiBmb250LXN0eWxlPSJpdGFsaWMiIGxlbmd0aEFkanVzdD0ic3BhY2luZyIgdGV4dExlbmd0aD0iNzciIHg9IjEyMzEuNzUiIHk9IjIyNi43NDIyIj5UYXNrU2VydmljZTwvdGV4dD48bGluZSBzdHlsZT0ic3Ryb2tlOiMxODE4MTg7c3Ryb2tlLXdpZHRoOjAuNTsiIHgxPSIxMDgwIiB4Mj0iMTQyOCIgeTE9IjIzNyIgeTI9IjIzNyIvPjxsaW5lIHN0eWxlPSJzdHJva2U6IzE4MTgxODtzdHJva2Utd2lkdGg6MC41OyIgeDE9IjEwODAiIHgyPSIxNDI4IiB5MT0iMjQ1IiB5Mj0iMjQ1Ii8+PGVsbGlwc2UgY3g9IjEwOTAiIGN5PSIyNTcuOTkyMiIgZmlsbD0iIzg0QkU4NCIgcng9IjMiIHJ5PSIzIiBzdHlsZT0ic3Ryb2tlOiMwMzgwNDg7c3Ryb2tlLXdpZHRoOjEuMDsiLz48dGV4dCBmaWxsPSIjMDAwMDAwIiBmb250LWZhbWlseT0ic2Fucy1zZXJpZiIgZm9udC1zaXplPSIxNCIgbGVuZ3RoQWRqdXN0PSJzcGFjaW5nIiB0ZXh0TGVuZ3RoPSIxNzciIHg9IjEwOTkiIHk9IjI2Mi4yMzQ0Ij5jcmVhdGVUYXNrKHRhc2tJbmZvKTogaW50PC90ZXh0PjxlbGxpcHNlIGN4PSIxMDkwIiBjeT0iMjcyLjk3NjYiIGZpbGw9IiM4NEJFODQiIHJ4PSIzIiByeT0iMyIgc3R5bGU9InN0cm9rZTojMDM4MDQ4O3N0cm9rZS13aWR0aDoxLjA7Ii8+PHRleHQgZmlsbD0iIzAwMDAwMCIgZm9udC1mYW1pbHk9InNhbnMtc2VyaWYiIGZvbnQtc2l6ZT0iMTQiIGxlbmd0aEFkanVzdD0ic3BhY2luZyIgdGV4dExlbmd0aD0iMjYxIiB4PSIxMDk5IiB5PSIyNzcuMjE4OCI+YXNzaWduVGFzayh0YXNrSWQsIHZvbHVudGVlcklkKTogdm9pZDwvdGV4dD48ZWxsaXBzZSBjeD0iMTA5MCIgY3k9IjI4Ny45NjA5IiBmaWxsPSIjODRCRTg0IiByeD0iMyIgcnk9IjMiIHN0eWxlPSJzdHJva2U6IzAzODA0ODtzdHJva2Utd2lkdGg6MS4wOyIvPjx0ZXh0IGZpbGw9IiMwMDAwMDAiIGZvbnQtZmFtaWx5PSJzYW5zLXNlcmlmIiBmb250LXNpemU9IjE0IiBsZW5ndGhBZGp1c3Q9InNwYWNpbmciIHRleHRMZW5ndGg9IjMyNCIgeD0iMTA5OSIgeT0iMjkyLjIwMzEiPnVwZGF0ZVRhc2tQcm9ncmVzcyh0YXNrSWQsIHByb2dyZXNzSW5mbyk6IHZvaWQ8L3RleHQ+PGVsbGlwc2UgY3g9IjEwOTAiIGN5PSIzMDIuOTQ1MyIgZmlsbD0iIzg0QkU4NCIgcng9IjMiIHJ5PSIzIiBzdHlsZT0ic3Ryb2tlOiMwMzgwNDg7c3Ryb2tlLXdpZHRoOjEuMDsiLz48dGV4dCBmaWxsPSIjMDAwMDAwIiBmb250LWZhbWlseT0ic2Fucy1zZXJpZiIgZm9udC1zaXplPSIxNCIgbGVuZ3RoQWRqdXN0PSJzcGFjaW5nIiB0ZXh0TGVuZ3RoPSIxNDkiIHg9IjEwOTkiIHk9IjMwNy4xODc1Ij5nZXRUYXNrKHRhc2tJZCk6IFRhc2s8L3RleHQ+PC9nPjwhLS1jbGFzcyBUYXNrU2VydmljZUltcGwtLT48ZyBpZD0iZWxlbV9UYXNrU2VydmljZUltcGwiPjxyZWN0IGNvZGVMaW5lPSI1MiIgZmlsbD0iI0YxRjFGMSIgaGVpZ2h0PSI3Ny45Njg4IiBpZD0iVGFza1NlcnZpY2VJbXBsIiByeD0iMi41IiByeT0iMi41IiBzdHlsZT0ic3Ryb2tlOiMxODE4MTg7c3Ryb2tlLXdpZHRoOjAuNTsiIHdpZHRoPSIyMzYiIHg9IjEwMzgiIHk9IjM4MC41Ii8+PGVsbGlwc2UgY3g9IjEwOTguNzUiIGN5PSIzOTYuNSIgZmlsbD0iI0FERDFCMiIgcng9IjExIiByeT0iMTEiIHN0eWxlPSJzdHJva2U6IzE4MTgxODtzdHJva2Utd2lkdGg6MS4wOyIvPjxwYXRoIGQ9Ik0xMDk2LjM3NSw0MDAuNzUgTDEwOTYuMzc1LDQwMi41IEwxMTAxLjMxMjUsNDAyLjUgTDExMDEuMzEyNSw0MDAuNzUgTDEwOTYuMzc1LDQwMC43NSBaIE0xMDk3LjA2MjUsNDAxLjQzNzUgUTEwOTcuMDYyNSw0MDEuNDM3NSAxMDk3LjA2MjUsMzkyLjI1IEwxMDk1LjMxMjUsMzkyLjI1IFExMDk1LjMxMjUsMzkyLjI1IDEwOTUuMzEyNSw0MDEuNDM3NSBMMTA5Ny4wNjI1LDQwMS40Mzc1IFogTTExMDAuNjI1LDQwMS40Mzc1IEwxMTAyLjM3NSw0MDEuNDM3NSBRMTEwMi4zNzUsNDAxLjQzNzUgMTEwMi4zNzUsMzk4LjYyNSBMMTEwMC42MjUsMzk4LjYyNSBRMTEwMC42MjUsMzk4LjYyNSAxMTAwLjYyNSw0MDEuNDM3NSBaIE0xMTAwLjYyNSwzOTIuMjUgUTExMDAuNjI1LDM5Mi4yNSAxMTAwLjYyNSwzOTUuMDYyNSBMMTEwMi4zNzUsMzk1LjA2MjUgUTExMDIuMzc1LDM5NS4wNjI1IDExMDIuMzc1LDM5Mi4yNSBMMTEwMC42MjUsMzkyLjI1IFogTTEwOTYuMzc1LDM5Mi45Mzc1IEwxMTAxLjMxMjUsMzkyLjkzNzUgTDExMDEuMzEyNSwzOTEuMTg3NSBMMTA5Ni4zNzUsMzkxLjE4NzUgTDEwOTYuMzc1LDM5Mi45Mzc1IFogIiBmaWxsPSIjMDAwMDAwIi8+PHRleHQgZmlsbD0iIzAwMDAwMCIgZm9udC1mYW1pbHk9InNhbnMtc2VyaWYiIGZvbnQtc2l6ZT0iMTQiIGxlbmd0aEFkanVzdD0ic3BhY2luZyIgdGV4dExlbmd0aD0iMTA2IiB4PSIxMTE5LjI1IiB5PSI0MDIuMjQyMiI+VGFza1NlcnZpY2VJbXBsPC90ZXh0PjxsaW5lIHN0eWxlPSJzdHJva2U6IzE4MTgxODtzdHJva2Utd2lkdGg6MC41OyIgeDE9IjEwMzkiIHgyPSIxMjczIiB5MT0iNDEyLjUiIHkyPSI0MTIuNSIvPjxyZWN0IGZpbGw9Im5vbmUiIGhlaWdodD0iNiIgc3R5bGU9InN0cm9rZTojQzgyOTMwO3N0cm9rZS13aWR0aDoxLjA7IiB3aWR0aD0iNiIgeD0iMTA0NiIgeT0iNDIyLjQ5MjIiLz48dGV4dCBmaWxsPSIjMDAwMDAwIiBmb250LWZhbWlseT0ic2Fucy1zZXJpZiIgZm9udC1zaXplPSIxNCIgbGVuZ3RoQWRqdXN0PSJzcGFjaW5nIiB0ZXh0TGVuZ3RoPSIyMTAiIHg9IjEwNTgiIHk9IjQyOS43MzQ0Ij50YXNrUmVwb3NpdG9yeTogVGFza1JlcG9zaXRvcnk8L3RleHQ+PHRleHQgZmlsbD0iIzAwMDAwMCIgZm9udC1mYW1pbHk9InNhbnMtc2VyaWYiIGZvbnQtc2l6ZT0iMTQiIGxlbmd0aEFkanVzdD0ic3BhY2luZyIgdGV4dExlbmd0aD0iMjEiIHg9IjEwNTgiIHk9IjQ0NC43MTg4Ij4uLi48L3RleHQ+PGxpbmUgc3R5bGU9InN0cm9rZTojMTgxODE4O3N0cm9rZS13aWR0aDowLjU7IiB4MT0iMTAzOSIgeDI9IjEyNzMiIHkxPSI0NTAuNDY4OCIgeTI9IjQ1MC40Njg4Ii8+PC9nPjwhLS1jbGFzcyBUYXNrUmVwb3NpdG9yeS0tPjxnIGlkPSJlbGVtX1Rhc2tSZXBvc2l0b3J5Ij48cmVjdCBjb2RlTGluZT0iNTciIGZpbGw9IiNGMUYxRjEiIGhlaWdodD0iOTIuOTUzMSIgaWQ9IlRhc2tSZXBvc2l0b3J5IiByeD0iMi41IiByeT0iMi41IiBzdHlsZT0ic3Ryb2tlOiMxODE4MTg7c3Ryb2tlLXdpZHRoOjAuNTsiIHdpZHRoPSIyMTAiIHg9IjEzMDkiIHk9IjM3MyIvPjxlbGxpcHNlIGN4PSIxMzYwLjc1IiBjeT0iMzg5IiBmaWxsPSIjQjRBN0U1IiByeD0iMTEiIHJ5PSIxMSIgc3R5bGU9InN0cm9rZTojMTgxODE4O3N0cm9rZS13aWR0aDoxLjA7Ii8+PHBhdGggZD0iTTEzNjMuODc1LDM5NSBMMTM2My44NzUsMzkzLjI1IEwxMzYxLjc1LDM5My4yNSBRMTM2MS43NSwzOTMuMjUgMTM2MS43NSwzODUuNDM3NSBMMTM2My44NzUsMzg1LjQzNzUgTDEzNjMuODc1LDM4My42ODc1IEwxMzU3Ljg3NSwzODMuNjg3NSBMMTM1Ny44NzUsMzg1LjQzNzUgTDEzNjAsMzg1LjQzNzUgUTEzNjAsMzg1LjQzNzUgMTM2MCwzOTMuMjUgTDEzNTcuODc1LDM5My4yNSBMMTM1Ny44NzUsMzk1IEwxMzYzLjg3NSwzOTUgWiAiIGZpbGw9IiMwMDAwMDAiLz48dGV4dCBmaWxsPSIjMDAwMDAwIiBmb250LWZhbWlseT0ic2Fucy1zZXJpZiIgZm9udC1zaXplPSIxNCIgZm9udC1zdHlsZT0iaXRhbGljIiBsZW5ndGhBZGp1c3Q9InNwYWNpbmciIHRleHRMZW5ndGg9Ijk4IiB4PSIxMzgxLjI1IiB5PSIzOTQuNzQyMiI+VGFza1JlcG9zaXRvcnk8L3RleHQ+PGxpbmUgc3R5bGU9InN0cm9rZTojMTgxODE4O3N0cm9rZS13aWR0aDowLjU7IiB4MT0iMTMxMCIgeDI9IjE1MTgiIHkxPSI0MDUiIHkyPSI0MDUiLz48bGluZSBzdHlsZT0ic3Ryb2tlOiMxODE4MTg7c3Ryb2tlLXdpZHRoOjAuNTsiIHgxPSIxMzEwIiB4Mj0iMTUxOCIgeTE9IjQxMyIgeTI9IjQxMyIvPjxlbGxpcHNlIGN4PSIxMzIwIiBjeT0iNDI1Ljk5MjIiIGZpbGw9IiM4NEJFODQiIHJ4PSIzIiByeT0iMyIgc3R5bGU9InN0cm9rZTojMDM4MDQ4O3N0cm9rZS13aWR0aDoxLjA7Ii8+PHRleHQgZmlsbD0iIzAwMDAwMCIgZm9udC1mYW1pbHk9InNhbnMtc2VyaWYiIGZvbnQtc2l6ZT0iMTQiIGxlbmd0aEFkanVzdD0ic3BhY2luZyIgdGV4dExlbmd0aD0iMTYzIiB4PSIxMzI5IiB5PSI0MzAuMjM0NCI+c2F2ZVRhc2sodGFza0luZm8pOiBpbnQ8L3RleHQ+PGVsbGlwc2UgY3g9IjEzMjAiIGN5PSI0NDAuOTc2NiIgZmlsbD0iIzg0QkU4NCIgcng9IjMiIHJ5PSIzIiBzdHlsZT0ic3Ryb2tlOiMwMzgwNDg7c3Ryb2tlLXdpZHRoOjEuMDsiLz48dGV4dCBmaWxsPSIjMDAwMDAwIiBmb250LWZhbWlseT0ic2Fucy1zZXJpZiIgZm9udC1zaXplPSIxNCIgbGVuZ3RoQWRqdXN0PSJzcGFjaW5nIiB0ZXh0TGVuZ3RoPSIxODQiIHg9IjEzMjkiIHk9IjQ0NS4yMTg4Ij51cGRhdGVUYXNrKHRhc2tJbmZvKTogdm9pZDwvdGV4dD48ZWxsaXBzZSBjeD0iMTMyMCIgY3k9IjQ1NS45NjA5IiBmaWxsPSIjODRCRTg0IiByeD0iMyIgcnk9IjMiIHN0eWxlPSJzdHJva2U6IzAzODA0ODtzdHJva2Utd2lkdGg6MS4wOyIvPjx0ZXh0IGZpbGw9IiMwMDAwMDAiIGZvbnQtZmFtaWx5PSJzYW5zLXNlcmlmIiBmb250LXNpemU9IjE0IiBsZW5ndGhBZGp1c3Q9InNwYWNpbmciIHRleHRMZW5ndGg9IjE1NiIgeD0iMTMyOSIgeT0iNDYwLjIwMzEiPmZpbmRCeUlkKHRhc2tJZCk6IFRhc2s8L3RleHQ+PC9nPjwhLS1jbGFzcyBUYXNrUmVwb3NpdG9yeUltcGwtLT48ZyBpZD0iZWxlbV9UYXNrUmVwb3NpdG9yeUltcGwiPjxyZWN0IGNvZGVMaW5lPSI2MyIgZmlsbD0iI0YxRjFGMSIgaGVpZ2h0PSI2Mi45ODQ0IiBpZD0iVGFza1JlcG9zaXRvcnlJbXBsIiByeD0iMi41IiByeT0iMi41IiBzdHlsZT0ic3Ryb2tlOiMxODE4MTg7c3Ryb2tlLXdpZHRoOjAuNTsiIHdpZHRoPSIxNTkiIHg9IjEzMzQuNSIgeT0iNTI2Ii8+PGVsbGlwc2UgY3g9IjEzNDkuNSIgY3k9IjU0MiIgZmlsbD0iI0FERDFCMiIgcng9IjExIiByeT0iMTEiIHN0eWxlPSJzdHJva2U6IzE4MTgxODtzdHJva2Utd2lkdGg6MS4wOyIvPjxwYXRoIGQ9Ik0xMzQ3LjEyNSw1NDYuMjUgTDEzNDcuMTI1LDU0OCBMMTM1Mi4wNjI1LDU0OCBMMTM1Mi4wNjI1LDU0Ni4yNSBMMTM0Ny4xMjUsNTQ2LjI1IFogTTEzNDcuODEyNSw1NDYuOTM3NSBRMTM0Ny44MTI1LDU0Ni45Mzc1IDEzNDcuODEyNSw1MzcuNzUgTDEzNDYuMDYyNSw1MzcuNzUgUTEzNDYuMDYyNSw1MzcuNzUgMTM0Ni4wNjI1LDU0Ni45Mzc1IEwxMzQ3LjgxMjUsNTQ2LjkzNzUgWiBNMTM1MS4zNzUsNTQ2LjkzNzUgTDEzNTMuMTI1LDU0Ni45Mzc1IFExMzUzLjEyNSw1NDYuOTM3NSAxMzUzLjEyNSw1NDQuMTI1IEwxMzUxLjM3NSw1NDQuMTI1IFExMzUxLjM3NSw1NDQuMTI1IDEzNTEuMzc1LDU0Ni45Mzc1IFogTTEzNTEuMzc1LDUzNy43NSBRMTM1MS4zNzUsNTM3Ljc1IDEzNTEuMzc1LDU0MC41NjI1IEwxMzUzLjEyNSw1NDAuNTYyNSBRMTM1My4xMjUsNTQwLjU2MjUgMTM1My4xMjUsNTM3Ljc1IEwxMzUxLjM3NSw1MzcuNzUgWiBNMTM0Ny4xMjUsNTM4LjQzNzUgTDEzNTIuMDYyNSw1MzguNDM3NSBMMTM1Mi4wNjI1LDUzNi42ODc1IEwxMzQ3LjEyNSw1MzYuNjg3NSBMMTM0Ny4xMjUsNTM4LjQzNzUgWiAiIGZpbGw9IiMwMDAwMDAiLz48dGV4dCBmaWxsPSIjMDAwMDAwIiBmb250LWZhbWlseT0ic2Fucy1zZXJpZiIgZm9udC1zaXplPSIxNCIgbGVuZ3RoQWRqdXN0PSJzcGFjaW5nIiB0ZXh0TGVuZ3RoPSIxMjciIHg9IjEzNjMuNSIgeT0iNTQ3Ljc0MjIiPlRhc2tSZXBvc2l0b3J5SW1wbDwvdGV4dD48bGluZSBzdHlsZT0ic3Ryb2tlOiMxODE4MTg7c3Ryb2tlLXdpZHRoOjAuNTsiIHgxPSIxMzM1LjUiIHgyPSIxNDkyLjUiIHkxPSI1NTgiIHkyPSI1NTgiLz48dGV4dCBmaWxsPSIjMDAwMDAwIiBmb250LWZhbWlseT0ic2Fucy1zZXJpZiIgZm9udC1zaXplPSIxNCIgbGVuZ3RoQWRqdXN0PSJzcGFjaW5nIiB0ZXh0TGVuZ3RoPSIyMSIgeD0iMTM0MC41IiB5PSI1NzUuMjM0NCI+Li4uPC90ZXh0PjxsaW5lIHN0eWxlPSJzdHJva2U6IzE4MTgxODtzdHJva2Utd2lkdGg6MC41OyIgeDE9IjEzMzUuNSIgeDI9IjE0OTIuNSIgeTE9IjU4MC45ODQ0IiB5Mj0iNTgwLjk4NDQiLz48L2c+PCEtLWNsYXNzIFJlY29yZFNlcnZpY2UtLT48ZyBpZD0iZWxlbV9SZWNvcmRTZXJ2aWNlIj48cmVjdCBjb2RlTGluZT0iNjciIGZpbGw9IiNGMUYxRjEiIGhlaWdodD0iNzcuOTY4OCIgaWQ9IlJlY29yZFNlcnZpY2UiIHJ4PSIyLjUiIHJ5PSIyLjUiIHN0eWxlPSJzdHJva2U6IzE4MTgxODtzdHJva2Utd2lkdGg6MC41OyIgd2lkdGg9IjIzOCIgeD0iMTcwNiIgeT0iMjIwIi8+PGVsbGlwc2UgY3g9IjE3NzUuMjUiIGN5PSIyMzYiIGZpbGw9IiNCNEE3RTUiIHJ4PSIxMSIgcnk9IjExIiBzdHlsZT0ic3Ryb2tlOiMxODE4MTg7c3Ryb2tlLXdpZHRoOjEuMDsiLz48cGF0aCBkPSJNMTc3OC4zNzUsMjQyIEwxNzc4LjM3NSwyNDAuMjUgTDE3NzYuMjUsMjQwLjI1IFExNzc2LjI1LDI0MC4yNSAxNzc2LjI1LDIzMi40Mzc1IEwxNzc4LjM3NSwyMzIuNDM3NSBMMTc3OC4zNzUsMjMwLjY4NzUgTDE3NzIuMzc1LDIzMC42ODc1IEwxNzcyLjM3NSwyMzIuNDM3NSBMMTc3NC41LDIzMi40Mzc1IFExNzc0LjUsMjMyLjQzNzUgMTc3NC41LDI0MC4yNSBMMTc3Mi4zNzUsMjQwLjI1IEwxNzcyLjM3NSwyNDIgTDE3NzguMzc1LDI0MiBaICIgZmlsbD0iIzAwMDAwMCIvPjx0ZXh0IGZpbGw9IiMwMDAwMDAiIGZvbnQtZmFtaWx5PSJzYW5zLXNlcmlmIiBmb250LXNpemU9IjE0IiBmb250LXN0eWxlPSJpdGFsaWMiIGxlbmd0aEFkanVzdD0ic3BhY2luZyIgdGV4dExlbmd0aD0iOTEiIHg9IjE3OTUuNzUiIHk9IjI0MS43NDIyIj5SZWNvcmRTZXJ2aWNlPC90ZXh0PjxsaW5lIHN0eWxlPSJzdHJva2U6IzE4MTgxODtzdHJva2Utd2lkdGg6MC41OyIgeDE9IjE3MDciIHgyPSIxOTQzIiB5MT0iMjUyIiB5Mj0iMjUyIi8+PGxpbmUgc3R5bGU9InN0cm9rZTojMTgxODE4O3N0cm9rZS13aWR0aDowLjU7IiB4MT0iMTcwNyIgeDI9IjE5NDMiIHkxPSIyNjAiIHkyPSIyNjAiLz48ZWxsaXBzZSBjeD0iMTcxNyIgY3k9IjI3Mi45OTIyIiBmaWxsPSIjODRCRTg0IiByeD0iMyIgcnk9IjMiIHN0eWxlPSJzdHJva2U6IzAzODA0ODtzdHJva2Utd2lkdGg6MS4wOyIvPjx0ZXh0IGZpbGw9IiMwMDAwMDAiIGZvbnQtZmFtaWx5PSJzYW5zLXNlcmlmIiBmb250LXNpemU9IjE0IiBsZW5ndGhBZGp1c3Q9InNwYWNpbmciIHRleHRMZW5ndGg9IjIxMiIgeD0iMTcyNiIgeT0iMjc3LjIzNDQiPnVwbG9hZFJlY29yZChyZWNvcmRGaWxlKTogdm9pZDwvdGV4dD48ZWxsaXBzZSBjeD0iMTcxNyIgY3k9IjI4Ny45NzY2IiBmaWxsPSIjODRCRTg0IiByeD0iMyIgcnk9IjMiIHN0eWxlPSJzdHJva2U6IzAzODA0ODtzdHJva2Utd2lkdGg6MS4wOyIvPjx0ZXh0IGZpbGw9IiMwMDAwMDAiIGZvbnQtZmFtaWx5PSJzYW5zLXNlcmlmIiBmb250LXNpemU9IjE0IiBsZW5ndGhBZGp1c3Q9InNwYWNpbmciIHRleHRMZW5ndGg9IjE5MSIgeD0iMTcyNiIgeT0iMjkyLjIxODgiPmdldFJlY29yZChyZWNvcmRJZCk6IFJlY29yZDwvdGV4dD48L2c+PCEtLWNsYXNzIFJlY29yZFNlcnZpY2VJbXBsLS0+PGcgaWQ9ImVsZW1fUmVjb3JkU2VydmljZUltcGwiPjxyZWN0IGNvZGVMaW5lPSI3MiIgZmlsbD0iI0YxRjFGMSIgaGVpZ2h0PSI3Ny45Njg4IiBpZD0iUmVjb3JkU2VydmljZUltcGwiIHJ4PSIyLjUiIHJ5PSIyLjUiIHN0eWxlPSJzdHJva2U6IzE4MTgxODtzdHJva2Utd2lkdGg6MC41OyIgd2lkdGg9IjI2NCIgeD0iMTU1NCIgeT0iMzgwLjUiLz48ZWxsaXBzZSBjeD0iMTYyMS43NSIgY3k9IjM5Ni41IiBmaWxsPSIjQUREMUIyIiByeD0iMTEiIHJ5PSIxMSIgc3R5bGU9InN0cm9rZTojMTgxODE4O3N0cm9rZS13aWR0aDoxLjA7Ii8+PHBhdGggZD0iTTE2MTkuMzc1LDQwMC43NSBMMTYxOS4zNzUsNDAyLjUgTDE2MjQuMzEyNSw0MDIuNSBMMTYyNC4zMTI1LDQwMC43NSBMMTYxOS4zNzUsNDAwLjc1IFogTTE2MjAuMDYyNSw0MDEuNDM3NSBRMTYyMC4wNjI1LDQwMS40Mzc1IDE2MjAuMDYyNSwzOTIuMjUgTDE2MTguMzEyNSwzOTIuMjUgUTE2MTguMzEyNSwzOTIuMjUgMTYxOC4zMTI1LDQwMS40Mzc1IEwxNjIwLjA2MjUsNDAxLjQzNzUgWiBNMTYyMy42MjUsNDAxLjQzNzUgTDE2MjUuMzc1LDQwMS40Mzc1IFExNjI1LjM3NSw0MDEuNDM3NSAxNjI1LjM3NSwzOTguNjI1IEwxNjIzLjYyNSwzOTguNjI1IFExNjIzLjYyNSwzOTguNjI1IDE2MjMuNjI1LDQwMS40Mzc1IFogTTE2MjMuNjI1LDM5Mi4yNSBRMTYyMy42MjUsMzkyLjI1IDE2MjMuNjI1LDM5NS4wNjI1IEwxNjI1LjM3NSwzOTUuMDYyNSBRMTYyNS4zNzUsMzk1LjA2MjUgMTYyNS4zNzUsMzkyLjI1IEwxNjIzLjYyNSwzOTIuMjUgWiBNMTYxOS4zNzUsMzkyLjkzNzUgTDE2MjQuMzEyNSwzOTIuOTM3NSBMMTYyNC4zMTI1LDM5MS4xODc1IEwxNjE5LjM3NSwzOTEuMTg3NSBMMTYxOS4zNzUsMzkyLjkzNzUgWiAiIGZpbGw9IiMwMDAwMDAiLz48dGV4dCBmaWxsPSIjMDAwMDAwIiBmb250LWZhbWlseT0ic2Fucy1zZXJpZiIgZm9udC1zaXplPSIxNCIgbGVuZ3RoQWRqdXN0PSJzcGFjaW5nIiB0ZXh0TGVuZ3RoPSIxMjAiIHg9IjE2NDIuMjUiIHk9IjQwMi4yNDIyIj5SZWNvcmRTZXJ2aWNlSW1wbDwvdGV4dD48bGluZSBzdHlsZT0ic3Ryb2tlOiMxODE4MTg7c3Ryb2tlLXdpZHRoOjAuNTsiIHgxPSIxNTU1IiB4Mj0iMTgxNyIgeTE9IjQxMi41IiB5Mj0iNDEyLjUiLz48cmVjdCBmaWxsPSJub25lIiBoZWlnaHQ9IjYiIHN0eWxlPSJzdHJva2U6I0M4MjkzMDtzdHJva2Utd2lkdGg6MS4wOyIgd2lkdGg9IjYiIHg9IjE1NjIiIHk9IjQyMi40OTIyIi8+PHRleHQgZmlsbD0iIzAwMDAwMCIgZm9udC1mYW1pbHk9InNhbnMtc2VyaWYiIGZvbnQtc2l6ZT0iMTQiIGxlbmd0aEFkanVzdD0ic3BhY2luZyIgdGV4dExlbmd0aD0iMjM4IiB4PSIxNTc0IiB5PSI0MjkuNzM0NCI+cmVjb3JkUmVwb3NpdG9yeTogUmVjb3JkUmVwb3NpdG9yeTwvdGV4dD48dGV4dCBmaWxsPSIjMDAwMDAwIiBmb250LWZhbWlseT0ic2Fucy1zZXJpZiIgZm9udC1zaXplPSIxNCIgbGVuZ3RoQWRqdXN0PSJzcGFjaW5nIiB0ZXh0TGVuZ3RoPSIyMSIgeD0iMTU3NCIgeT0iNDQ0LjcxODgiPi4uLjwvdGV4dD48bGluZSBzdHlsZT0ic3Ryb2tlOiMxODE4MTg7c3Ryb2tlLXdpZHRoOjAuNTsiIHgxPSIxNTU1IiB4Mj0iMTgxNyIgeTE9IjQ1MC40Njg4IiB5Mj0iNDUwLjQ2ODgiLz48L2c+PCEtLWNsYXNzIFJlY29yZFJlcG9zaXRvcnktLT48ZyBpZD0iZWxlbV9SZWNvcmRSZXBvc2l0b3J5Ij48cmVjdCBjb2RlTGluZT0iNzciIGZpbGw9IiNGMUYxRjEiIGhlaWdodD0iNzcuOTY4OCIgaWQ9IlJlY29yZFJlcG9zaXRvcnkiIHJ4PSIyLjUiIHJ5PSIyLjUiIHN0eWxlPSJzdHJva2U6IzE4MTgxODtzdHJva2Utd2lkdGg6MC41OyIgd2lkdGg9IjIyNCIgeD0iMTg1MyIgeT0iMzgwLjUiLz48ZWxsaXBzZSBjeD0iMTkwNC43NSIgY3k9IjM5Ni41IiBmaWxsPSIjQjRBN0U1IiByeD0iMTEiIHJ5PSIxMSIgc3R5bGU9InN0cm9rZTojMTgxODE4O3N0cm9rZS13aWR0aDoxLjA7Ii8+PHBhdGggZD0iTTE5MDcuODc1LDQwMi41IEwxOTA3Ljg3NSw0MDAuNzUgTDE5MDUuNzUsNDAwLjc1IFExOTA1Ljc1LDQwMC43NSAxOTA1Ljc1LDM5Mi45Mzc1IEwxOTA3Ljg3NSwzOTIuOTM3NSBMMTkwNy44NzUsMzkxLjE4NzUgTDE5MDEuODc1LDM5MS4xODc1IEwxOTAxLjg3NSwzOTIuOTM3NSBMMTkwNCwzOTIuOTM3NSBRMTkwNCwzOTIuOTM3NSAxOTA0LDQwMC43NSBMMTkwMS44NzUsNDAwLjc1IEwxOTAxLjg3NSw0MDIuNSBMMTkwNy44NzUsNDAyLjUgWiAiIGZpbGw9IiMwMDAwMDAiLz48dGV4dCBmaWxsPSIjMDAwMDAwIiBmb250LWZhbWlseT0ic2Fucy1zZXJpZiIgZm9udC1zaXplPSIxNCIgZm9udC1zdHlsZT0iaXRhbGljIiBsZW5ndGhBZGp1c3Q9InNwYWNpbmciIHRleHRMZW5ndGg9IjExMiIgeD0iMTkyNS4yNSIgeT0iNDAyLjI0MjIiPlJlY29yZFJlcG9zaXRvcnk8L3RleHQ+PGxpbmUgc3R5bGU9InN0cm9rZTojMTgxODE4O3N0cm9rZS13aWR0aDowLjU7IiB4MT0iMTg1NCIgeDI9IjIwNzYiIHkxPSI0MTIuNSIgeTI9IjQxMi41Ii8+PGxpbmUgc3R5bGU9InN0cm9rZTojMTgxODE4O3N0cm9rZS13aWR0aDowLjU7IiB4MT0iMTg1NCIgeDI9IjIwNzYiIHkxPSI0MjAuNSIgeTI9IjQyMC41Ii8+PGVsbGlwc2UgY3g9IjE4NjQiIGN5PSI0MzMuNDkyMiIgZmlsbD0iIzg0QkU4NCIgcng9IjMiIHJ5PSIzIiBzdHlsZT0ic3Ryb2tlOiMwMzgwNDg7c3Ryb2tlLXdpZHRoOjEuMDsiLz48dGV4dCBmaWxsPSIjMDAwMDAwIiBmb250LWZhbWlseT0ic2Fucy1zZXJpZiIgZm9udC1zaXplPSIxNCIgbGVuZ3RoQWRqdXN0PSJzcGFjaW5nIiB0ZXh0TGVuZ3RoPSIxOTgiIHg9IjE4NzMiIHk9IjQzNy43MzQ0Ij5zYXZlUmVjb3JkKHJlY29yZEluZm8pOiB2b2lkPC90ZXh0PjxlbGxpcHNlIGN4PSIxODY0IiBjeT0iNDQ4LjQ3NjYiIGZpbGw9IiM4NEJFODQiIHJ4PSIzIiByeT0iMyIgc3R5bGU9InN0cm9rZTojMDM4MDQ4O3N0cm9rZS13aWR0aDoxLjA7Ii8+PHRleHQgZmlsbD0iIzAwMDAwMCIgZm9udC1mYW1pbHk9InNhbnMtc2VyaWYiIGZvbnQtc2l6ZT0iMTQiIGxlbmd0aEFkanVzdD0ic3BhY2luZyIgdGV4dExlbmd0aD0iMTg0IiB4PSIxODczIiB5PSI0NTIuNzE4OCI+ZmluZEJ5SWQocmVjb3JkSWQpOiBSZWNvcmQ8L3RleHQ+PC9nPjwhLS1jbGFzcyBSZWNvcmRSZXBvc2l0b3J5SW1wbC0tPjxnIGlkPSJlbGVtX1JlY29yZFJlcG9zaXRvcnlJbXBsIj48cmVjdCBjb2RlTGluZT0iODIiIGZpbGw9IiNGMUYxRjEiIGhlaWdodD0iNjIuOTg0NCIgaWQ9IlJlY29yZFJlcG9zaXRvcnlJbXBsIiByeD0iMi41IiByeT0iMi41IiBzdHlsZT0ic3Ryb2tlOiMxODE4MTg7c3Ryb2tlLXdpZHRoOjAuNTsiIHdpZHRoPSIxNzMiIHg9IjE4NzguNSIgeT0iNTI2Ii8+PGVsbGlwc2UgY3g9IjE4OTMuNSIgY3k9IjU0MiIgZmlsbD0iI0FERDFCMiIgcng9IjExIiByeT0iMTEiIHN0eWxlPSJzdHJva2U6IzE4MTgxODtzdHJva2Utd2lkdGg6MS4wOyIvPjxwYXRoIGQ9Ik0xODkxLjEyNSw1NDYuMjUgTDE4OTEuMTI1LDU0OCBMMTg5Ni4wNjI1LDU0OCBMMTg5Ni4wNjI1LDU0Ni4yNSBMMTg5MS4xMjUsNTQ2LjI1IFogTTE4OTEuODEyNSw1NDYuOTM3NSBRMTg5MS44MTI1LDU0Ni45Mzc1IDE4OTEuODEyNSw1MzcuNzUgTDE4OTAuMDYyNSw1MzcuNzUgUTE4OTAuMDYyNSw1MzcuNzUgMTg5MC4wNjI1LDU0Ni45Mzc1IEwxODkxLjgxMjUsNTQ2LjkzNzUgWiBNMTg5NS4zNzUsNTQ2LjkzNzUgTDE4OTcuMTI1LDU0Ni45Mzc1IFExODk3LjEyNSw1NDYuOTM3NSAxODk3LjEyNSw1NDQuMTI1IEwxODk1LjM3NSw1NDQuMTI1IFExODk1LjM3NSw1NDQuMTI1IDE4OTUuMzc1LDU0Ni45Mzc1IFogTTE4OTUuMzc1LDUzNy43NSBRMTg5NS4zNzUsNTM3Ljc1IDE4OTUuMzc1LDU0MC41NjI1IEwxODk3LjEyNSw1NDAuNTYyNSBRMTg5Ny4xMjUsNTQwLjU2MjUgMTg5Ny4xMjUsNTM3Ljc1IEwxODk1LjM3NSw1MzcuNzUgWiBNMTg5MS4xMjUsNTM4LjQzNzUgTDE4OTYuMDYyNSw1MzguNDM3NSBMMTg5Ni4wNjI1LDUzNi42ODc1IEwxODkxLjEyNSw1MzYuNjg3NSBMMTg5MS4xMjUsNTM4LjQzNzUgWiAiIGZpbGw9IiMwMDAwMDAiLz48dGV4dCBmaWxsPSIjMDAwMDAwIiBmb250LWZhbWlseT0ic2Fucy1zZXJpZiIgZm9udC1zaXplPSIxNCIgbGVuZ3RoQWRqdXN0PSJzcGFjaW5nIiB0ZXh0TGVuZ3RoPSIxNDEiIHg9IjE5MDcuNSIgeT0iNTQ3Ljc0MjIiPlJlY29yZFJlcG9zaXRvcnlJbXBsPC90ZXh0PjxsaW5lIHN0eWxlPSJzdHJva2U6IzE4MTgxODtzdHJva2Utd2lkdGg6MC41OyIgeDE9IjE4NzkuNSIgeDI9IjIwNTAuNSIgeTE9IjU1OCIgeTI9IjU1OCIvPjx0ZXh0IGZpbGw9IiMwMDAwMDAiIGZvbnQtZmFtaWx5PSJzYW5zLXNlcmlmIiBmb250LXNpemU9IjE0IiBsZW5ndGhBZGp1c3Q9InNwYWNpbmciIHRleHRMZW5ndGg9IjIxIiB4PSIxODg0LjUiIHk9IjU3NS4yMzQ0Ij4uLi48L3RleHQ+PGxpbmUgc3R5bGU9InN0cm9rZTojMTgxODE4O3N0cm9rZS13aWR0aDowLjU7IiB4MT0iMTg3OS41IiB4Mj0iMjA1MC41IiB5MT0iNTgwLjk4NDQiIHkyPSI1ODAuOTg0NCIvPjwvZz48IS0tY2xhc3MgVm9sdW50ZWVyQ29udHJvbGxlci0tPjxnIGlkPSJlbGVtX1ZvbHVudGVlckNvbnRyb2xsZXIiPjxyZWN0IGZpbGw9IiNGMUYxRjEiIGhlaWdodD0iNDgiIGlkPSJWb2x1bnRlZXJDb250cm9sbGVyIiByeD0iMi41IiByeT0iMi41IiBzdHlsZT0ic3Ryb2tlOiMxODE4MTg7c3Ryb2tlLXdpZHRoOjAuNTsiIHdpZHRoPSIxNjUiIHg9IjYxNi41IiB5PSI1MiIvPjxlbGxpcHNlIGN4PSI2MzEuNSIgY3k9IjY4IiBmaWxsPSIjQUREMUIyIiByeD0iMTEiIHJ5PSIxMSIgc3R5bGU9InN0cm9rZTojMTgxODE4O3N0cm9rZS13aWR0aDoxLjA7Ii8+PHBhdGggZD0iTTYyOS4xMjUsNzIuMjUgTDYyOS4xMjUsNzQgTDYzNC4wNjI1LDc0IEw2MzQuMDYyNSw3Mi4yNSBMNjI5LjEyNSw3Mi4yNSBaIE02MjkuODEyNSw3Mi45Mzc1IFE2MjkuODEyNSw3Mi45Mzc1IDYyOS44MTI1LDYzLjc1IEw2MjguMDYyNSw2My43NSBRNjI4LjA2MjUsNjMuNzUgNjI4LjA2MjUsNzIuOTM3NSBMNjI5LjgxMjUsNzIuOTM3NSBaIE02MzMuMzc1LDcyLjkzNzUgTDYzNS4xMjUsNzIuOTM3NSBRNjM1LjEyNSw3Mi45Mzc1IDYzNS4xMjUsNzAuMTI1IEw2MzMuMzc1LDcwLjEyNSBRNjMzLjM3NSw3MC4xMjUgNjMzLjM3NSw3Mi45Mzc1IFogTTYzMy4zNzUsNjMuNzUgUTYzMy4zNzUsNjMuNzUgNjMzLjM3NSw2Ni41NjI1IEw2MzUuMTI1LDY2LjU2MjUgUTYzNS4xMjUsNjYuNTYyNSA2MzUuMTI1LDYzLjc1IEw2MzMuMzc1LDYzLjc1IFogTTYyOS4xMjUsNjQuNDM3NSBMNjM0LjA2MjUsNjQuNDM3NSBMNjM0LjA2MjUsNjIuNjg3NSBMNjI5LjEyNSw2Mi42ODc1IEw2MjkuMTI1LDY0LjQzNzUgWiAiIGZpbGw9IiMwMDAwMDAiLz48dGV4dCBmaWxsPSIjMDAwMDAwIiBmb250LWZhbWlseT0ic2Fucy1zZXJpZiIgZm9udC1zaXplPSIxNCIgbGVuZ3RoQWRqdXN0PSJzcGFjaW5nIiB0ZXh0TGVuZ3RoPSIxMzMiIHg9IjY0NS41IiB5PSI3My43NDIyIj5Wb2x1bnRlZXJDb250cm9sbGVyPC90ZXh0PjxsaW5lIHN0eWxlPSJzdHJva2U6IzE4MTgxODtzdHJva2Utd2lkdGg6MC41OyIgeDE9IjYxNy41IiB4Mj0iNzgwLjUiIHkxPSI4NCIgeTI9Ijg0Ii8+PGxpbmUgc3R5bGU9InN0cm9rZTojMTgxODE4O3N0cm9rZS13aWR0aDowLjU7IiB4MT0iNjE3LjUiIHgyPSI3ODAuNSIgeTE9IjkyIiB5Mj0iOTIiLz48L2c+PCEtLWNsYXNzIFRhc2tDb250cm9sbGVyLS0+PGcgaWQ9ImVsZW1fVGFza0NvbnRyb2xsZXIiPjxyZWN0IGZpbGw9IiNGMUYxRjEiIGhlaWdodD0iNDgiIGlkPSJUYXNrQ29udHJvbGxlciIgcng9IjIuNSIgcnk9IjIuNSIgc3R5bGU9InN0cm9rZTojMTgxODE4O3N0cm9rZS13aWR0aDowLjU7IiB3aWR0aD0iMTMwIiB4PSIxMTg5IiB5PSI1MiIvPjxlbGxpcHNlIGN4PSIxMjA0IiBjeT0iNjgiIGZpbGw9IiNBREQxQjIiIHJ4PSIxMSIgcnk9IjExIiBzdHlsZT0ic3Ryb2tlOiMxODE4MTg7c3Ryb2tlLXdpZHRoOjEuMDsiLz48cGF0aCBkPSJNMTIwMS42MjUsNzIuMjUgTDEyMDEuNjI1LDc0IEwxMjA2LjU2MjUsNzQgTDEyMDYuNTYyNSw3Mi4yNSBMMTIwMS42MjUsNzIuMjUgWiBNMTIwMi4zMTI1LDcyLjkzNzUgUTEyMDIuMzEyNSw3Mi45Mzc1IDEyMDIuMzEyNSw2My43NSBMMTIwMC41NjI1LDYzLjc1IFExMjAwLjU2MjUsNjMuNzUgMTIwMC41NjI1LDcyLjkzNzUgTDEyMDIuMzEyNSw3Mi45Mzc1IFogTTEyMDUuODc1LDcyLjkzNzUgTDEyMDcuNjI1LDcyLjkzNzUgUTEyMDcuNjI1LDcyLjkzNzUgMTIwNy42MjUsNzAuMTI1IEwxMjA1Ljg3NSw3MC4xMjUgUTEyMDUuODc1LDcwLjEyNSAxMjA1Ljg3NSw3Mi45Mzc1IFogTTEyMDUuODc1LDYzLjc1IFExMjA1Ljg3NSw2My43NSAxMjA1Ljg3NSw2Ni41NjI1IEwxMjA3LjYyNSw2Ni41NjI1IFExMjA3LjYyNSw2Ni41NjI1IDEyMDcuNjI1LDYzLjc1IEwxMjA1Ljg3NSw2My43NSBaIE0xMjAxLjYyNSw2NC40Mzc1IEwxMjA2LjU2MjUsNjQuNDM3NSBMMTIwNi41NjI1LDYyLjY4NzUgTDEyMDEuNjI1LDYyLjY4NzUgTDEyMDEuNjI1LDY0LjQzNzUgWiAiIGZpbGw9IiMwMDAwMDAiLz48dGV4dCBmaWxsPSIjMDAwMDAwIiBmb250LWZhbWlseT0ic2Fucy1zZXJpZiIgZm9udC1zaXplPSIxNCIgbGVuZ3RoQWRqdXN0PSJzcGFjaW5nIiB0ZXh0TGVuZ3RoPSI5OCIgeD0iMTIxOCIgeT0iNzMuNzQyMiI+VGFza0NvbnRyb2xsZXI8L3RleHQ+PGxpbmUgc3R5bGU9InN0cm9rZTojMTgxODE4O3N0cm9rZS13aWR0aDowLjU7IiB4MT0iMTE5MCIgeDI9IjEzMTgiIHkxPSI4NCIgeTI9Ijg0Ii8+PGxpbmUgc3R5bGU9InN0cm9rZTojMTgxODE4O3N0cm9rZS13aWR0aDowLjU7IiB4MT0iMTE5MCIgeDI9IjEzMTgiIHkxPSI5MiIgeTI9IjkyIi8+PC9nPjwhLS1jbGFzcyBSZWNvcmRDb250cm9sbGVyLS0+PGcgaWQ9ImVsZW1fUmVjb3JkQ29udHJvbGxlciI+PHJlY3QgZmlsbD0iI0YxRjFGMSIgaGVpZ2h0PSI0OCIgaWQ9IlJlY29yZENvbnRyb2xsZXIiIHJ4PSIyLjUiIHJ5PSIyLjUiIHN0eWxlPSJzdHJva2U6IzE4MTgxODtzdHJva2Utd2lkdGg6MC41OyIgd2lkdGg9IjE0NCIgeD0iMTc1MyIgeT0iNTIiLz48ZWxsaXBzZSBjeD0iMTc2OCIgY3k9IjY4IiBmaWxsPSIjQUREMUIyIiByeD0iMTEiIHJ5PSIxMSIgc3R5bGU9InN0cm9rZTojMTgxODE4O3N0cm9rZS13aWR0aDoxLjA7Ii8+PHBhdGggZD0iTTE3NjUuNjI1LDcyLjI1IEwxNzY1LjYyNSw3NCBMMTc3MC41NjI1LDc0IEwxNzcwLjU2MjUsNzIuMjUgTDE3NjUuNjI1LDcyLjI1IFogTTE3NjYuMzEyNSw3Mi45Mzc1IFExNzY2LjMxMjUsNzIuOTM3NSAxNzY2LjMxMjUsNjMuNzUgTDE3NjQuNTYyNSw2My43NSBRMTc2NC41NjI1LDYzLjc1IDE3NjQuNTYyNSw3Mi45Mzc1IEwxNzY2LjMxMjUsNzIuOTM3NSBaIE0xNzY5Ljg3NSw3Mi45Mzc1IEwxNzcxLjYyNSw3Mi45Mzc1IFExNzcxLjYyNSw3Mi45Mzc1IDE3NzEuNjI1LDcwLjEyNSBMMTc2OS44NzUsNzAuMTI1IFExNzY5Ljg3NSw3MC4xMjUgMTc2OS44NzUsNzIuOTM3NSBaIE0xNzY5Ljg3NSw2My43NSBRMTc2OS44NzUsNjMuNzUgMTc2OS44NzUsNjYuNTYyNSBMMTc3MS42MjUsNjYuNTYyNSBRMTc3MS42MjUsNjYuNTYyNSAxNzcxLjYyNSw2My43NSBMMTc2OS44NzUsNjMuNzUgWiBNMTc2NS42MjUsNjQuNDM3NSBMMTc3MC41NjI1LDY0LjQzNzUgTDE3NzAuNTYyNSw2Mi42ODc1IEwxNzY1LjYyNSw2Mi42ODc1IEwxNzY1LjYyNSw2NC40Mzc1IFogIiBmaWxsPSIjMDAwMDAwIi8+PHRleHQgZmlsbD0iIzAwMDAwMCIgZm9udC1mYW1pbHk9InNhbnMtc2VyaWYiIGZvbnQtc2l6ZT0iMTQiIGxlbmd0aEFkanVzdD0ic3BhY2luZyIgdGV4dExlbmd0aD0iMTEyIiB4PSIxNzgyIiB5PSI3My43NDIyIj5SZWNvcmRDb250cm9sbGVyPC90ZXh0PjxsaW5lIHN0eWxlPSJzdHJva2U6IzE4MTgxODtzdHJva2Utd2lkdGg6MC41OyIgeDE9IjE3NTQiIHgyPSIxODk2IiB5MT0iODQiIHkyPSI4NCIvPjxsaW5lIHN0eWxlPSJzdHJva2U6IzE4MTgxODtzdHJva2Utd2lkdGg6MC41OyIgeDE9IjE3NTQiIHgyPSIxODk2IiB5MT0iOTIiIHkyPSI5MiIvPjwvZz48IS0tY2xhc3MgQ2F0LS0+PGcgaWQ9ImVsZW1fQ2F0Ij48cmVjdCBmaWxsPSIjRjFGMUYxIiBoZWlnaHQ9IjQ4IiBpZD0iQ2F0IiByeD0iMi41IiByeT0iMi41IiBzdHlsZT0ic3Ryb2tlOiMxODE4MTg7c3Ryb2tlLXdpZHRoOjAuNTsiIHdpZHRoPSI1MyIgeD0iNTI4LjUiIHk9IjUyIi8+PGVsbGlwc2UgY3g9IjU0My41IiBjeT0iNjgiIGZpbGw9IiNBREQxQjIiIHJ4PSIxMSIgcnk9IjExIiBzdHlsZT0ic3Ryb2tlOiMxODE4MTg7c3Ryb2tlLXdpZHRoOjEuMDsiLz48cGF0aCBkPSJNNTQxLjEyNSw3Mi4yNSBMNTQxLjEyNSw3NCBMNTQ2LjA2MjUsNzQgTDU0Ni4wNjI1LDcyLjI1IEw1NDEuMTI1LDcyLjI1IFogTTU0MS44MTI1LDcyLjkzNzUgUTU0MS44MTI1LDcyLjkzNzUgNTQxLjgxMjUsNjMuNzUgTDU0MC4wNjI1LDYzLjc1IFE1NDAuMDYyNSw2My43NSA1NDAuMDYyNSw3Mi45Mzc1IEw1NDEuODEyNSw3Mi45Mzc1IFogTTU0NS4zNzUsNzIuOTM3NSBMNTQ3LjEyNSw3Mi45Mzc1IFE1NDcuMTI1LDcyLjkzNzUgNTQ3LjEyNSw3MC4xMjUgTDU0NS4zNzUsNzAuMTI1IFE1NDUuMzc1LDcwLjEyNSA1NDUuMzc1LDcyLjkzNzUgWiBNNTQ1LjM3NSw2My43NSBRNTQ1LjM3NSw2My43NSA1NDUuMzc1LDY2LjU2MjUgTDU0Ny4xMjUsNjYuNTYyNSBRNTQ3LjEyNSw2Ni41NjI1IDU0Ny4xMjUsNjMuNzUgTDU0NS4zNzUsNjMuNzUgWiBNNTQxLjEyNSw2NC40Mzc1IEw1NDYuMDYyNSw2NC40Mzc1IEw1NDYuMDYyNSw2Mi42ODc1IEw1NDEuMTI1LDYyLjY4NzUgTDU0MS4xMjUsNjQuNDM3NSBaICIgZmlsbD0iIzAwMDAwMCIvPjx0ZXh0IGZpbGw9IiMwMDAwMDAiIGZvbnQtZmFtaWx5PSJzYW5zLXNlcmlmIiBmb250LXNpemU9IjE0IiBsZW5ndGhBZGp1c3Q9InNwYWNpbmciIHRleHRMZW5ndGg9IjIxIiB4PSI1NTcuNSIgeT0iNzMuNzQyMiI+Q2F0PC90ZXh0PjxsaW5lIHN0eWxlPSJzdHJva2U6IzE4MTgxODtzdHJva2Utd2lkdGg6MC41OyIgeDE9IjUyOS41IiB4Mj0iNTgwLjUiIHkxPSI4NCIgeTI9Ijg0Ii8+PGxpbmUgc3R5bGU9InN0cm9rZTojMTgxODE4O3N0cm9rZS13aWR0aDowLjU7IiB4MT0iNTI5LjUiIHgyPSI1ODAuNSIgeTE9IjkyIiB5Mj0iOTIiLz48L2c+PCEtLXJldmVyc2UgbGluayBWb2x1bnRlZXJTZXJ2aWNlIHRvIFZvbHVudGVlclNlcnZpY2VJbXBsLS0+PGcgaWQ9ImxpbmtfVm9sdW50ZWVyU2VydmljZV9Wb2x1bnRlZXJTZXJ2aWNlSW1wbCI+PHBhdGggZD0iTTYwNS40NDI4LDMxNC43MTgzIEM1NjQuOTQyOCwzMzguNDA4MyA1MzEuNTcsMzU3LjkyIDQ5My4xMywzODAuNDEgIiBmaWxsPSJub25lIiBpZD0iVm9sdW50ZWVyU2VydmljZS1iYWNrdG8tVm9sdW50ZWVyU2VydmljZUltcGwiIHN0eWxlPSJzdHJva2U6IzE4MTgxODtzdHJva2Utd2lkdGg6MS4wO3N0cm9rZS1kYXNoYXJyYXk6Ny4wLDcuMDsiLz48cG9seWdvbiBmaWxsPSJub25lIiBwb2ludHM9IjYyMC45OCwzMDUuNjMsNjAyLjQxMzQsMzA5LjUzOTIsNjA4LjQ3MjMsMzE5Ljg5NzMsNjIwLjk4LDMwNS42MyIgc3R5bGU9InN0cm9rZTojMTgxODE4O3N0cm9rZS13aWR0aDoxLjA7Ii8+PC9nPjwhLS1yZXZlcnNlIGxpbmsgVm9sdW50ZWVyUmVwb3NpdG9yeSB0byBWb2x1bnRlZXJSZXBvc2l0b3J5SW1wbC0tPjxnIGlkPSJsaW5rX1ZvbHVudGVlclJlcG9zaXRvcnlfVm9sdW50ZWVyUmVwb3NpdG9yeUltcGwiPjxwYXRoIGQ9Ik03OTgsNDg0LjE2IEM3OTgsNTAzLjc2IDc5OCw1MDguMTUgNzk4LDUyNS43MyAiIGZpbGw9Im5vbmUiIGlkPSJWb2x1bnRlZXJSZXBvc2l0b3J5LWJhY2t0by1Wb2x1bnRlZXJSZXBvc2l0b3J5SW1wbCIgc3R5bGU9InN0cm9rZTojMTgxODE4O3N0cm9rZS13aWR0aDoxLjA7c3Ryb2tlLWRhc2hhcnJheTo3LjAsNy4wOyIvPjxwb2x5Z29uIGZpbGw9Im5vbmUiIHBvaW50cz0iNzk4LDQ2Ni4xNiw3OTIsNDg0LjE2LDgwNCw0ODQuMTYsNzk4LDQ2Ni4xNiIgc3R5bGU9InN0cm9rZTojMTgxODE4O3N0cm9rZS13aWR0aDoxLjA7Ii8+PC9nPjwhLS1yZXZlcnNlIGxpbmsgVGFza1NlcnZpY2UgdG8gVGFza1NlcnZpY2VJbXBsLS0+PGcgaWQ9ImxpbmtfVGFza1NlcnZpY2VfVGFza1NlcnZpY2VJbXBsIj48cGF0aCBkPSJNMTIxMS42MjY3LDMyOC41MzE2IEMxMTk4LjA2NjcsMzUwLjQ3MTYgMTE5Mi4xMSwzNjAuMSAxMTc5LjY4LDM4MC4yICIgZmlsbD0ibm9uZSIgaWQ9IlRhc2tTZXJ2aWNlLWJhY2t0by1UYXNrU2VydmljZUltcGwiIHN0eWxlPSJzdHJva2U6IzE4MTgxODtzdHJva2Utd2lkdGg6MS4wO3N0cm9rZS1kYXNoYXJyYXk6Ny4wLDcuMDsiLz48cG9seWdvbiBmaWxsPSJub25lIiBwb2ludHM9IjEyMjEuMDksMzEzLjIyLDEyMDYuNTIyOCwzMjUuMzc3MiwxMjE2LjczMDUsMzMxLjY4NjEsMTIyMS4wOSwzMTMuMjIiIHN0eWxlPSJzdHJva2U6IzE4MTgxODtzdHJva2Utd2lkdGg6MS4wOyIvPjwvZz48IS0tcmV2ZXJzZSBsaW5rIFRhc2tSZXBvc2l0b3J5IHRvIFRhc2tSZXBvc2l0b3J5SW1wbC0tPjxnIGlkPSJsaW5rX1Rhc2tSZXBvc2l0b3J5X1Rhc2tSZXBvc2l0b3J5SW1wbCI+PHBhdGggZD0iTTE0MTQsNDg0LjE2IEMxNDE0LDUwMy43NiAxNDE0LDUwOC4xNSAxNDE0LDUyNS43MyAiIGZpbGw9Im5vbmUiIGlkPSJUYXNrUmVwb3NpdG9yeS1iYWNrdG8tVGFza1JlcG9zaXRvcnlJbXBsIiBzdHlsZT0ic3Ryb2tlOiMxODE4MTg7c3Ryb2tlLXdpZHRoOjEuMDtzdHJva2UtZGFzaGFycmF5OjcuMCw3LjA7Ii8+PHBvbHlnb24gZmlsbD0ibm9uZSIgcG9pbnRzPSIxNDE0LDQ2Ni4xNiwxNDA4LDQ4NC4xNiwxNDIwLDQ4NC4xNiwxNDE0LDQ2Ni4xNiIgc3R5bGU9InN0cm9rZTojMTgxODE4O3N0cm9rZS13aWR0aDoxLjA7Ii8+PC9nPjwhLS1yZXZlcnNlIGxpbmsgUmVjb3JkU2VydmljZSB0byBSZWNvcmRTZXJ2aWNlSW1wbC0tPjxnIGlkPSJsaW5rX1JlY29yZFNlcnZpY2VfUmVjb3JkU2VydmljZUltcGwiPjxwYXRoIGQ9Ik0xNzc5LjQ4MzEsMzExLjkwNDMgQzE3NTcuNjMzMSwzMzYuODI0MyAxNzQxLjEzLDM1NS42NCAxNzE5LjM0LDM4MC40OCAiIGZpbGw9Im5vbmUiIGlkPSJSZWNvcmRTZXJ2aWNlLWJhY2t0by1SZWNvcmRTZXJ2aWNlSW1wbCIgc3R5bGU9InN0cm9rZTojMTgxODE4O3N0cm9rZS13aWR0aDoxLjA7c3Ryb2tlLWRhc2hhcnJheTo3LjAsNy4wOyIvPjxwb2x5Z29uIGZpbGw9Im5vbmUiIHBvaW50cz0iMTc5MS4zNSwyOTguMzcsMTc3NC45NzE3LDMwNy45NDg2LDE3ODMuOTk0NSwzMTUuODU5OSwxNzkxLjM1LDI5OC4zNyIgc3R5bGU9InN0cm9rZTojMTgxODE4O3N0cm9rZS13aWR0aDoxLjA7Ii8+PC9nPjwhLS1yZXZlcnNlIGxpbmsgUmVjb3JkUmVwb3NpdG9yeSB0byBSZWNvcmRSZXBvc2l0b3J5SW1wbC0tPjxnIGlkPSJsaW5rX1JlY29yZFJlcG9zaXRvcnlfUmVjb3JkUmVwb3NpdG9yeUltcGwiPjxwYXRoIGQ9Ik0xOTY1LDQ3Ni43NSBDMTk2NSw0OTcuOTYgMTk2NSw1MDUuOTggMTk2NSw1MjUuODUgIiBmaWxsPSJub25lIiBpZD0iUmVjb3JkUmVwb3NpdG9yeS1iYWNrdG8tUmVjb3JkUmVwb3NpdG9yeUltcGwiIHN0eWxlPSJzdHJva2U6IzE4MTgxODtzdHJva2Utd2lkdGg6MS4wO3N0cm9rZS1kYXNoYXJyYXk6Ny4wLDcuMDsiLz48cG9seWdvbiBmaWxsPSJub25lIiBwb2ludHM9IjE5NjUsNDU4Ljc1LDE5NTksNDc2Ljc1LDE5NzEsNDc2Ljc1LDE5NjUsNDU4Ljc1IiBzdHlsZT0ic3Ryb2tlOiMxODE4MTg7c3Ryb2tlLXdpZHRoOjEuMDsiLz48L2c+PCEtLWxpbmsgVm9sdW50ZWVyQ29udHJvbGxlciB0byBWb2x1bnRlZXJTZXJ2aWNlLS0+PGcgaWQ9ImxpbmtfVm9sdW50ZWVyQ29udHJvbGxlcl9Wb2x1bnRlZXJTZXJ2aWNlIj48cGF0aCBjb2RlTGluZT0iODYiIGQ9Ik02OTksMTAwLjI5IEM2OTksMTI4LjQ2IDY5OSwxNzAuNTIgNjk5LDIwNi4yICIgZmlsbD0ibm9uZSIgaWQ9IlZvbHVudGVlckNvbnRyb2xsZXItdG8tVm9sdW50ZWVyU2VydmljZSIgc3R5bGU9InN0cm9rZTojMTgxODE4O3N0cm9rZS13aWR0aDoxLjA7Ii8+PHBvbHlnb24gZmlsbD0iIzE4MTgxOCIgcG9pbnRzPSI2OTksMjEyLjIsNzAzLDIwMy4yLDY5OSwyMDcuMiw2OTUsMjAzLjIsNjk5LDIxMi4yIiBzdHlsZT0ic3Ryb2tlOiMxODE4MTg7c3Ryb2tlLXdpZHRoOjEuMDsiLz48L2c+PCEtLWxpbmsgVGFza0NvbnRyb2xsZXIgdG8gVGFza1NlcnZpY2UtLT48ZyBpZD0ibGlua19UYXNrQ29udHJvbGxlcl9UYXNrU2VydmljZSI+PHBhdGggY29kZUxpbmU9Ijg3IiBkPSJNMTI1NCwxMDAuMjkgQzEyNTQsMTI2LjU1IDEyNTQsMTY0LjEgMTI1NCwxOTguNzkgIiBmaWxsPSJub25lIiBpZD0iVGFza0NvbnRyb2xsZXItdG8tVGFza1NlcnZpY2UiIHN0eWxlPSJzdHJva2U6IzE4MTgxODtzdHJva2Utd2lkdGg6MS4wOyIvPjxwb2x5Z29uIGZpbGw9IiMxODE4MTgiIHBvaW50cz0iMTI1NCwyMDQuNzksMTI1OCwxOTUuNzksMTI1NCwxOTkuNzksMTI1MCwxOTUuNzksMTI1NCwyMDQuNzkiIHN0eWxlPSJzdHJva2U6IzE4MTgxODtzdHJva2Utd2lkdGg6MS4wOyIvPjwvZz48IS0tbGluayBSZWNvcmRDb250cm9sbGVyIHRvIFJlY29yZFNlcnZpY2UtLT48ZyBpZD0ibGlua19SZWNvcmRDb250cm9sbGVyX1JlY29yZFNlcnZpY2UiPjxwYXRoIGNvZGVMaW5lPSI4OCIgZD0iTTE4MjUsMTAwLjI5IEMxODI1LDEzMC41NiAxODI1LDE3Ny44IDE4MjUsMjEzLjk3ICIgZmlsbD0ibm9uZSIgaWQ9IlJlY29yZENvbnRyb2xsZXItdG8tUmVjb3JkU2VydmljZSIgc3R5bGU9InN0cm9rZTojMTgxODE4O3N0cm9rZS13aWR0aDoxLjA7Ii8+PHBvbHlnb24gZmlsbD0iIzE4MTgxOCIgcG9pbnRzPSIxODI1LDIxOS45NywxODI5LDIxMC45NywxODI1LDIxNC45NywxODIxLDIxMC45NywxODI1LDIxOS45NyIgc3R5bGU9InN0cm9rZTojMTgxODE4O3N0cm9rZS13aWR0aDoxLjA7Ii8+PC9nPjwhLS1saW5rIFZvbHVudGVlclNlcnZpY2UgdG8gVm9sdW50ZWVyUmVwb3NpdG9yeS0tPjxnIGlkPSJsaW5rX1ZvbHVudGVlclNlcnZpY2VfVm9sdW50ZWVyUmVwb3NpdG9yeSI+PHBhdGggY29kZUxpbmU9IjkwIiBkPSJNNzI3LjYzLDMwNS44NCBDNzQwLjc3LDMyNi44NyA3NTMuMTIxMywzNDYuNjUxMiA3NjYuMjUxMywzNjcuNjcxMiAiIGZpbGw9Im5vbmUiIGlkPSJWb2x1bnRlZXJTZXJ2aWNlLXRvLVZvbHVudGVlclJlcG9zaXRvcnkiIHN0eWxlPSJzdHJva2U6IzE4MTgxODtzdHJva2Utd2lkdGg6MS4wOyIvPjxwb2x5Z29uIGZpbGw9IiMxODE4MTgiIHBvaW50cz0iNzY5LjQzLDM3Mi43Niw3NjguMDU0NSwzNjMuMDA3Nyw3NjYuNzgxMSwzNjguNTE5Myw3NjEuMjY5NCwzNjcuMjQ1OSw3NjkuNDMsMzcyLjc2IiBzdHlsZT0ic3Ryb2tlOiMxODE4MTg7c3Ryb2tlLXdpZHRoOjEuMDsiLz48L2c+PCEtLWxpbmsgVGFza1NlcnZpY2UgdG8gVGFza1JlcG9zaXRvcnktLT48ZyBpZD0ibGlua19UYXNrU2VydmljZV9UYXNrUmVwb3NpdG9yeSI+PHBhdGggY29kZUxpbmU9IjkxIiBkPSJNMTMwNy43MiwzMTMuMjIgQzEzMjcuMjQsMzMyLjU1IDEzNDQuODQ3LDM0OS45OTc4IDEzNjMuNjQ3LDM2OC42MTc4ICIgZmlsbD0ibm9uZSIgaWQ9IlRhc2tTZXJ2aWNlLXRvLVRhc2tSZXBvc2l0b3J5IiBzdHlsZT0ic3Ryb2tlOiMxODE4MTg7c3Ryb2tlLXdpZHRoOjEuMDsiLz48cG9seWdvbiBmaWxsPSIjMTgxODE4IiBwb2ludHM9IjEzNjcuOTEsMzcyLjg0LDEzNjQuMzMwMywzNjMuNjY0NywxMzY0LjM1NzUsMzY5LjMyMTUsMTM1OC43MDA3LDM2OS4zNDg3LDEzNjcuOTEsMzcyLjg0IiBzdHlsZT0ic3Ryb2tlOiMxODE4MTg7c3Ryb2tlLXdpZHRoOjEuMDsiLz48L2c+PCEtLWxpbmsgUmVjb3JkU2VydmljZSB0byBSZWNvcmRSZXBvc2l0b3J5LS0+PGcgaWQ9ImxpbmtfUmVjb3JkU2VydmljZV9SZWNvcmRSZXBvc2l0b3J5Ij48cGF0aCBjb2RlTGluZT0iOTIiIGQ9Ik0xODU4Ljg5LDI5OC4zNyBDMTg4MC45LDMyMy4yOSAxOTA1LjQ5NywzNTEuMTQzOSAxOTI3LjQ0NywzNzUuOTgzOSAiIGZpbGw9Im5vbmUiIGlkPSJSZWNvcmRTZXJ2aWNlLXRvLVJlY29yZFJlcG9zaXRvcnkiIHN0eWxlPSJzdHJva2U6IzE4MTgxODtzdHJva2Utd2lkdGg6MS4wOyIvPjxwb2x5Z29uIGZpbGw9IiMxODE4MTgiIHBvaW50cz0iMTkzMS40MiwzODAuNDgsMTkyOC40NTc5LDM3MS4wODcxLDE5MjguMTA5MSwzNzYuNzMzMiwxOTIyLjQ2MzEsMzc2LjM4NDUsMTkzMS40MiwzODAuNDgiIHN0eWxlPSJzdHJva2U6IzE4MTgxODtzdHJva2Utd2lkdGg6MS4wOyIvPjwvZz48IS0tcmV2ZXJzZSBsaW5rIFRhc2sgdG8gVm9sdW50ZWVyLS0+PGcgaWQ9ImxpbmtfVGFza19Wb2x1bnRlZXIiPjxwYXRoIGNvZGVMaW5lPSI5NCIgZD0iTTE4NS4yNiw3NiBDMTk2Ljk2LDc2IDE5Ni42Niw3NiAyMDguMzUsNzYgIiBmaWxsPSJub25lIiBpZD0iVGFzay1iYWNrdG8tVm9sdW50ZWVyIiBzdHlsZT0ic3Ryb2tlOiMxODE4MTg7c3Ryb2tlLXdpZHRoOjEuMDsiLz48cG9seWdvbiBmaWxsPSIjMTgxODE4IiBwb2ludHM9IjE3My4yNiw3NiwxNzkuMjYsODAsMTg1LjI2LDc2LDE3OS4yNiw3MiwxNzMuMjYsNzYiIHN0eWxlPSJzdHJva2U6IzE4MTgxODtzdHJva2Utd2lkdGg6MS4wOyIvPjwvZz48IS0tcmV2ZXJzZSBsaW5rIFJlY29yZCB0byBDYXQtLT48ZyBpZD0ibGlua19SZWNvcmRfQ2F0Ij48cGF0aCBjb2RlTGluZT0iOTUiIGQ9Ik01MDUuNTksNzYgQzUxNy4xMSw3NiA1MTYuNjIsNzYgNTI4LjEzLDc2ICIgZmlsbD0ibm9uZSIgaWQ9IlJlY29yZC1iYWNrdG8tQ2F0IiBzdHlsZT0ic3Ryb2tlOiMxODE4MTg7c3Ryb2tlLXdpZHRoOjEuMDsiLz48cG9seWdvbiBmaWxsPSIjMTgxODE4IiBwb2ludHM9IjQ5My41OSw3Niw0OTkuNTksODAsNTA1LjU5LDc2LDQ5OS41OSw3Miw0OTMuNTksNzYiIHN0eWxlPSJzdHJva2U6IzE4MTgxODtzdHJva2Utd2lkdGg6MS4wOyIvPjwvZz48IS0tU1JDPVtaTE4xUmtDVzRCdHhBcFljeEplVk81TUhrZ3JNWWhJN0FlYndIc09JZUhBbVc0SUFMbGxsN01wNzNEWml6WEI3Um1SY2xKVFpRMUx0WmRxT1RUNFVtQjhfNU1DcmF3OVhLbGwtbC1QZFFEWlVNd2JGRlIxVWh3a19MVE5zQW1fU1ZOdmRhRzNOTWpidlFOSTJFeV96bklOR3pLd2NZUnBjWE5WRzZZaU1JWC1iV2Jkdkl3U0M1bVNQdTNWa2VHVFJ4WGxzb1p0VDc3UzFVLUdqbkRmeGk1VTlHMlpybjdaTmdUaUtNcXJhal9mZTdYZWFCeUt6cHZlaEI2TUE3c1g3QW5yd0dMVVNtNF9QbHdOcEFtbzZ2X0U0UmdCeWREdHN0MmFjeUdWRWVCclJQYS15dEs1ZGRGSjZ0ZVpCNFNKYWlZNG5SVko0eU1NWGNJTU5KZzNyYUxkVi1qSU5PSHBlZWdGS3VhTWZRUE54ZFlzSE96NlBKQ1BDUm5aampGVWoxSEdHeTlON2RyN1ZDN1pPU1VWYUlTU2VvWTdRdmFRNHA3VGhKWFFTY3JQcTh2MXhYeUQxVGlQOFU0aV9teThhdjM5ZzVsUVdfSnlheG9LaDVoalV5WThnZkQ2YWdKemxNXzRsRVVLRUJoMlBDSHdFWHhIem1vNG1INVFzVl9wMm1vQXBFT2R0dDBPYUZ0ZUFUaXlCcnNwT1lyZy1vdjJvWDROUkt1dWJTX3loZU1wbk9rc0h1VkcxbEhoamhMNEFodXN3dGlvRWQyaHFBU2lYbXJXRERSQTRuM3ZJd3N2ZUtlWnVId1Z5TmVZNHF3eDRHWUlidHU4enJrSkk2VXlPbkYyTS0wODBdLS0+PC9nPjwvc3ZnPg==;" vertex="1" parent="1">
            <mxGeometry x="-413" y="1040" width="2084" height="595" as="geometry" />
          </mxCell>
        </UserObject>
        <mxCell id="Gy5BP04a-Xlsz3oRnTCF-4" value="志愿者服务类图设计" style="rounded=0;whiteSpace=wrap;html=1;" vertex="1" parent="1">
          <mxGeometry x="320" y="970" width="120" height="60" as="geometry" />
        </mxCell>
      </root>
    </mxGraphModel>
  </diagram>
</mxfile>
